<?xml version="1.0" encoding="UTF-8"?>
<svg id="Female_Front" xmlns="http://www.w3.org/2000/svg" version="1.1" viewBox="0 0 500 800">
  <!-- Generator: Adobe Illustrator 29.6.1, SVG Export Plug-In . SVG Version: 2.1.1 Build 9)  -->
  <defs>
    <style>
      .st0 {
        fill: #fff;
      }
    </style>
  </defs>
  <path id="Black_Back" d="M385.358997,421.424418c-1.5162229-22.8549509-1.9887036-46.2284669-3.1623681-69.315691-1.2665605-24.9157234-9.3370159-36.652037-13.813219-57.6843731-2.273607-10.6829843-2.0179279-23.9092719-3.8248726-35.1731709-1.1058933-6.8938817-4.2632363-14.5244526-4.9859084-21.0128313-2.4884912-22.3414768,4.9239556-49.069831-18.6198809-63.7094615-9.8299271-6.1122322-19.0040938-3.4077989-26.3555797-12.642596-15.2986969-19.2177879-10.2796632-58.4987512-13.9304465-82.4815465-1.9535949-12.8339421-10.0897717-37.7743275-21.4952298-44.5849003-21.9710826-13.1195728-49.6451256-15.5354662-65.3513751,8.0653642-7.2712845,10.9260349-15.5281271,48.0626522-18.7026609,62.5419461-3.6845697,16.8059277-8.3773761,41.7472388,5.077945,54.9294916-17.0806489,11.3642664-36.2117558,5.1034666-49.6214553,24.0209456-12.7367483,17.9682198-7.0078695,37.3800646-8.9869199,57.0932102-1.3024627,12.9740466-5.3293925,32.9360611-7.767105,46.3969361-2.3269644,12.8488848-8.0955141,23.4369234-10.8870913,35.693984-4.6083073,20.2336281-2.8518108,37.714755-3.9738369,57.773236-1.0999426,19.6638875-5.4098584,40.7040256-6.4704607,60.6843549-.7095146,13.3666565,5.9345064,31.4845018,16.3214134,39.981089,3.2240564,2.6372572,14.941923,11.3253228,17.0612762,4.1887872,1.7077674-5.7505656-7.7058795-12.6047102-10.4801998-17.2694825-3.1252757-5.2548773-3.6716106-8.6598992-3.1017377-14.6787064.101822-1.075016.3342937-5.3264833,1.8327308-5.1819489.7151346,4.621002,3.1990637,27.3646098,12.0069355,21.1880446,2.6946478-1.8895924-1.5506705-32.4300584-.1719074-37.8922824-8.073629-17.0274898-9.3071965-20.8962649-2.5985119-38.5364722,7.9439712-20.888529,19.5278823-34.6137447,23.1292753-58.1167862,3.2099732-20.9486966,4.2818817-37.0283157,10.2013793-58.0444529.5573104-1.9784553,1.2292037-6.3512495,2.9332023-7.3419649,1.5110657,13.6756269,9.9935036,28.1140597,12.2964671,41.3283799,3.2075268,18.4042033-12.1886283,48.249304-17.3928591,66.7612138-11.335505,40.3218623-11.7693727,85.1277297-3.0540003,125.9304037,5.7362179,26.8550367,20.1515093,56.5879348,17.7713858,83.7775958-1.6792043,19.182613-11.4829486,37.831652-7.4261995,58.6198797l19.3546526,85.5744905c-.7155974,6.7022711-3.2866703,13.1220853-9.1128751,20.0133222-3.5803674,4.2347394-22.9402434,19.2730627-7.1752808,21.7259823,6.7039241,1.0430809,31.132819,1.6829069,36.8576646-.5510292.9241343-.3605426.8714381-1.4985032,1.7170239-1.8917743,1.3511918-.6284536,3.4928269-.2586545,5.2724648-1.3851105,6.3637459-4.0281861,1.3756556-15.4237925.906613-21.3021646-.4117842-5.1617829.9085965-10.1394926.8370566-14.4887487-.0085292-.5159204-.0380841-1.0356757-.0766971-1.5571501h.1500222c-4.3882659-34.8735231,15.8226176-67.878281,10.5166309-102.0538603-1.2032854-7.7499804-5.9503748-19.411911-5.9612182-26.3137269-.0134881-8.5851195,6.5451081-23.8416991,7.3467254-34.6800612,1.0644371-14.3914227-.8619832-29.9087725.0242654-44.3903144.8174856-13.3575983,4.6672847-26.6804185,5.4512484-40.04648.7767568-13.2426849.0591097-27.999014-1.1838466-41.1510508l7.0811285-1.7008911c-.4673235,12.2807971-2.4003556,24.803653-1.6547405,37.43567.8760002,14.8410927,5.5385244,29.5910084,6.533868,44.3803305,1.2049383,17.9020354-1.2809743,35.9332659,1.3900032,53.8573848,1.0720407,7.194389,5.9130841,18.3629455,6.1037691,24.2251186.2458275,7.5575764-4.7895373,20.1226157-6.0830741,28.3840204-4.1300742,26.3762086,5.5392517,47.936102,8.3380358,73.358952.9682351,8.795706,1.8989812,18.8183016.232141,27.5774443-.0396048.0105789-.0781517.024067-.1178227.0345137-.035241.3360789-.0612916.6702403-.0868793,1.0042696-.00562.0259845-.0097855.0526962-.0154717.0786807.0028431.0003306.0057523.0005951.0085954.0009257-.0386792.5212099-.0681018,1.0405685-.0765649,1.5562244-.0715399,4.3492561,1.2488408,9.3269659.8370566,14.4887487-.4691087,5.8783721-5.4571329,17.2739785.906613,21.3021646,1.7795717,1.126456,3.9212729.7566568,5.2724648,1.3851105.8455858.3932711.7928896,1.5312317,1.7170239,1.8917743,5.7248456,2.2339361,30.1537405,1.5941101,36.8576646.5510292,15.7649625-2.4529196-3.5949795-17.491243-7.1752808-21.7259823-5.3215906-6.2943218-7.9246647-12.1955707-8.8823209-18.277653l21.4314918-91.6436797c1.9803728-24.0866009-8.3472262-46.2566332-6.3420591-70.2557598,1.6578481-19.8432001,11.4729648-42.1432869,15.7689957-62.2272234,13.5918552-63.5417857,8.5690528-93.8304735-9.6957072-154.2827534-4.2719639-14.1392479-11.1242573-32.1298156-7.8506123-46.3371652l13.542531-41.1480755c.1814284,12.3272782,5.3747496,24.6275141,7.2999798,36.5785135,2.1524123,13.361896,1.517413,26.322719,4.7072863,39.7071613,5.0754986,21.296214,19.7923552,39.6642506,24.1193295,60.3730042,3.5321672,16.9048405-5.2126939,16.8047376-6.7317599,30.838593-1.0580898,9.7755118-.0932267,21.2209714-1.1905907,31.2546088l4.8485148,4.9340717c8.7680686-3.8162772,8.0094282-15.802121,8.1283749-23.8608734,3.024181-.5305326,1.8130937.6519917,2.4370513,2.3749663,2.4363901,6.7269332,2.3472627,12.307575-1.53586,18.5671185-4.2192016,6.8013823-15.7178202,10.2630676-10.5196062,20.0776553,11.2137814-.6562233,20.9101497-10.240918,25.7070923-20.056233,8.9997468-18.4151128,4.5636114-28.564986,3.3067041-47.5122842Z"/>
  <path id="_x35_7" class="st0" d="M311.3066813,651.6799927c-.3859863,3.6901093-.9802246,7.522171-.9802246,7.5222626-1.1795654,6.547699-3.3110352,12.6968994-8.7910156,32.8964996-3.6837769,13.5787506-7.2788086,27.2162476-9.2387695,40.7712402h-.4575987c-.4302615,0-.826421-.2403794-1.0377812-.6151485-.9207161-1.6325497-.5558505-3.1346375-.4046445-4.9848881,1.4299927-16.8399658,3.4800415-33.4099731,5.1400146-50.1999512.5100098-5.1900024.9000244-10.4500122,1.2800293-15.7200317v-.0100098c1.477417-10.1134491,3.0510864-20.3522034,4.7266846-30.7117615,1.3731993-8.4898724,2.7858076-16.8812223,4.234075-25.1726675.2233217-1.2785342,2.0508701-1.2928727,2.3047419-.0200524,2.486902,12.4684199,4.9288111,29.9508889,3.2244888,46.2445083Z"/>
  <path id="_x35_4" class="st0" d="M203.3309634,652.300751c-.679813-5.932573-7.5018511-48.6074457-10.1672756-49.4308463-2.2035392-.6807326-1.4783157,1.1866136-1.8913246,2.3880104-4.0947931,11.9117589-4.5314268,30.0027361-2.8418321,42.444213,3.7847005,27.8692931,15.6827372,56.8759697,19.368341,85.1683158h1.083273c1.4413225-15.5581767-1.9539231-30.7088617-3.2414018-46.0479082-.9636638-11.480501-.995918-23.056279-2.3097799-34.5217846Z"/>
  <path id="_x35_3" class="st0" d="M270.0533647,410.0185245c8.0995434-20.1449873,15.1831514-45.7194251,10.765463-67.2475217l-25.7192278.2963705-2.3604953,3.0557989-2.6814808,14.0934417-2.402935-16.0061983-24.6809409-1.9161518c-4.5929643,2.2500107-3.5971171,18.958798-3.3041418,23.9310317,1.0716728,18.1885177,9.0513948,45.7828724,19.0971514,61.0655448,14.8734831,22.627143,25.7816849-3.5806363,31.2866073-17.2723157Z"/>
  <path id="_x35_2" class="st0" d="M248.9635286,189.6051146c0-4.346319-9.4839259-10.3956011-13.7984151-11.1168636-21.347445-3.5687532-38.2313668,6.2661489-48.8383176,24.3098766-1.364931,2.3218752-6.4374638,10.8328006-.4643609,9.3155111,4.6839974-1.1897966,8.4967081-4.7989382,13.2697581-5.7070768-9.3933172,7.748072-16.8992001,8.5694922-8.9113438,21.3581964,7.6446607,12.239464,24.035787,25.5107075,39.2384606,21.9737133.2493332,1.5209676-3.0527574,1.7212829-4.0881442,1.8451361-17.1585066,2.052454-29.4471299-15.2044419-40.3103456-25.6883176-.2400672,27.7266957,18.9172779,43.1010379,45.3488559,29.6518306,13.0684525-6.6495915,23.7769049-26.9370346,11.0090668-38.898165l-10.865267-6.9924334,18.4100529,8.6555032v-28.706911Z"/>
  <path id="_x35_1" class="st0" d="M289.0132945,179.8872046c-9.6700239-3.2813658-34.1780939-3.3446717-36.7998762,9.7179101-1.6812482,8.376533,1.2448975,21.8843778,0,30.873457,6.7283171-4.160221,12.5849938-10.0010535,20.5819038-11.9054637-6.1729938,5.215696-12.5029437,6.4535909-16.7203168,14.1428132-8.8052446,16.0540137,11.9905552,35.1404138,27.2708228,37.582464,18.9588688,3.0299107,33.8464985-14.277347,32.7703695-32.2364782-8.3210078,11.3719968-21.3093908,23.070567-36.2789291,22.7596963-1.2904494-.026737-4.0503022.7744535-3.7862566-1.0834145,19.1145517,2.023312,55.1449964-24.2462878,29.2436316-41.1650809l12.462626,6.4835816c.7247284-12.406252-17.4729139-31.3448204-28.743975-35.1694849Z"/>
  <path id="_x35_0" class="st0" d="M238.2243782,137.5140073c10.8974504,8.1970839,17.8598224,5.8020002,27.4974507-2.6471754,17.4969631-15.3392587,20.9138529-44.7377244,12.7256106-65.7411958-2.6372728-6.764886-10.7204062-9.3992587-12.1644872-16.5530337-10.919802,9.3485433-22.9488359,18.4353045-36.8104154,22.7599085l11.2321581,3.3704891,6.091934,7.4381209c-4.5177046-1.7638641-7.6085162-4.3683169-12.7454865-5.1427704-12.3357314-1.859707-15.7846632,3.4837324-15.4199648,15.4213795.4854393,15.8892063,6.6431548,31.3530962,19.5932006,41.0942773ZM262.6573299,77.6440592c5.8724501-2.9907247,15.5592377-2.828888,16.6326081,5.2523356-2.3415389.102704-3.5944999-1.7462516-6.0019619-2.1022499-7.3306777-1.0839803-11.5125429,1.5444509-17.8192217,4.2688666-1.4143733-1.3672652,6.0705727-6.8495531,7.1885755-7.4189523ZM240.7431028,119.8080995c7.1757729.8981652,12.8682787,1.6646967,20.1364286-.0636595-5.5885286,5.6133558-14.7445372,2.4808826-21.6701281,2.150914-.0239077-1.8367896-.6116973-2.3557562,1.5336995-2.0872545Z"/>
  <path id="_x34_9" class="st0" d="M294.4502427,546.540558c4.2726154-18.4607683,14.6223817-34.99237,19.7937989-53.3331755,8.32122-29.5114967,10.7472846-60.5653224-.2953095-89.6532003-1.6847848.1641001-1.6403646,1.6453159-2.0844959,2.7776067-3.3205518,8.4658686-5.4956564,18.3166149-8.716192,27.0319581-3.5282233,9.5480098-12.8551224,27.0318166-14.0111087,35.8198024-2.7402598,20.8319443,1.8966296,45.8637907,2.2047417,66.9413194l3.1085655,10.4156892Z"/>
  <path id="_x34_8" class="st0" d="M211.3980404,464.4091555l-22.0012284-61.9312437c-15.670076,33.5098103-7.6573218,71.080179,2.9426264,104.8219929l17.6150161,40.3240678c-.9147167-27.5543199,5.5600233-55.9002814,1.4435859-83.214817Z"/>
  <path id="_x34_7" class="st0" d="M327.4890432,221.5967866c-1.2555781.7250113-1.23259,1.5564755-1.5627,2.7237083-5.5233837,19.5293996,8.4126068,66.5844723,22.6720584,81.2225567,1.2308924,1.2635709,2.3310705,3.0144202,4.3543118,2.6759637,3.093358-19.1364789,3.3459449-39.5887295-1.6272083-58.4837265-3.5538286-13.5024691-9.3558288-24.608652-23.8364619-28.1385022Z"/>
  <path id="_x34_6" class="st0" d="M175.2899311,221.5620568c-34.0485114,11.2893102-29.4984819,60.4102761-25.9751392,88.8263338,22.2031706-21.5726583,28.8749014-58.8352686,25.9751392-88.8263338Z"/>
  <path id="_x34_3" class="st0" d="M293.3676063,393.8041595c-10.9179629,15.2353522-28.4770294,32.2747447-33.2489477,50.6942051-3.1207316,12.0458683-2.5744621,24.1376422-2.4750118,36.4954422l7.5580837,42.7979478c1.0043352-44.7721713,18.8919555-86.6931737,28.1658757-129.9875951Z"/>
  <path id="_x34_2" class="st0" d="M208.8930379,395.9702811l29.2266557,125.6549275c1.5892248-22.2900305,6.2703929-43.919275,4.326726-66.5988311-1.9923311-23.2465503-19.2463269-42.0093477-33.5533817-59.0560964Z"/>
  <path id="_x34_1" class="st0" d="M284.7239861,475.056141c-7.9909685,27.980768-25.0855326,51.9739031-18.1051238,82.5415821,3.5103279,15.3717958,9.227378,19.7130927,16.852092,3.4150508,11.2016015-23.9438343,2.0734616-51.3138952,3.3965188-76.7441795l-2.1434871-9.2124534Z"/>
  <path id="_x34_0" class="st0" d="M215.3928173,477.2215553l-3.3054857,50.3224334c-.4298433,14.5142312-.723243,36.8360207,14.5271753,43.7738484,13.2077962-14.6097912,10.3018094-37.6514993,4.4300666-55.0587731l-15.6517562-39.0375087Z"/>
  <path id="_x33_9" class="st0" d="M299.051129,391.3519944c-11.6062639,38.2639747-27.7293128,78.0387314-31.3584011,118.1431031-.1082212,1.1956674-1.2916518,3.6787427.7577606,3.4627247,9.4081711-31.6927551,27.5478125-60.0945955,36.2996538-92.0745966,1.7920157-6.5480899,4.8096896-16.7392732,4.9510138-23.278663.1457096-6.7369465-2.7464136-12.4629797-3.3349105-18.9613444l-7.3151165,12.7087762Z"/>
  <path id="_x33_8" class="st0" d="M208.3367951,407.8898913c-3.2349651-10.0552348-6.825504-21.0930899-13.5263768-29.2519073-5.9241558,20.366381,1.3534016,38.6176387,7.8461077,57.6811213l30.04751,73.3893223c-5.3082145-33.8176395-13.8792627-69.2193402-24.3672409-101.8185363Z"/>
  <path id="_x33_7" class="st0" d="M204.4652347,542.8548128c-1.5957322-14.034592-17.8013971-35.5336882-19.1075491-51.3221002l-8.963191-50.059661c-3.5770289,19.1980871-3.943142,34.0601116-.75288,53.2760941,3.593156,21.6433911,9.6587067,47.6600504,21.8649263,65.8600976,5.0268394-4.2841448,7.7211228-11.0486771,6.9586939-17.7544305Z"/>
  <path id="_x33_6" class="st0" d="M304.1999825,323.3906372c-5.3514322,3.7630562-8.4442951,10.8790599-10.8468764,16.7655151-9.1647087,22.4532111-11.3212814,48.3066898-21.6258494,70.4539814l2.1309674.517552c7.4027544-11.5077331,17.509695-21.2542899,24.9589916-33.0089513,3.2565386-5.1386679,9.7971308-15.8047513,11.1526544-21.3460304,3.0147031-12.3242726-4.1428207-21.6940358-5.7698875-33.3820668Z"/>
  <path id="_x33_5" class="st0" d="M323.7209649,444.7232242c-.8989433,20.6113994-4.7448276,42.1758527-11.4302099,61.6967644-3.2445847,9.4739526-17.904384,36.7983908-16.2579364,44.4888864.3328686,1.5549194,5.2210009,10.5050955,6.5775148,10.7922707,1.7885498.3786327,2.1718509-1.4621887,2.8813718-2.5001926,12.2558033-17.9306259,23.9351342-69.6703326,22.593545-91.2338664l-4.3642851-23.2438624Z"/>
  <path id="_x33_4" class="st0" d="M136.8385852,301.7299873c-17.9216428,34.1242662-8.5472113,72.9753232-15.6963179,109.4007399,2.741533.3986501,3.3366081-2.2444228,4.0425923-4.0708854,4.7007611-12.1618701,10.1513607-33.3310685,13.2057449-46.3746938,4.6148207-19.7075756,8.38686-40.1600384-1.5520193-58.9551607Z"/>
  <path id="_x33_3" class="st0" d="M202.8313776,329.9827229c-.7492727-1.1498326-3.0625892-5.693001-4.7668255-4.4224275-2.0643371,6.6485305-5.6439124,14.29984-6.3989851,21.233353-2.4972926,22.9310112,22.1953192,45.7130591,35.6217505,62.1753426-10.9715784-23.6072169-10.4966076-57.5629975-24.4559399-78.9862681Z"/>
  <path id="_x33_2" class="st0" d="M369.7255139,313.6645929l-7.0053068-13.0166761c-9.1869896,25.8101195-1.3441356,51.0177369,5.4888661,76.2801723,2.9743854,10.9969007,8.0179884,21.8215671,8.5852656,33.1327337l3.2425335-.0154905c-8.1741665-31.6606424.8147712-65.5843811-10.3113583-96.3807394Z"/>
  <path id="_x33_1" class="st0" d="M348.4515603,323.0259388l-9.5756664-11.5517289v20.0406564c0,3.9030365,4.095076,17.0912397,5.6754592,21.4065777,7.2363909,19.7594935,21.0228522,37.8216824,24.6718164,59.2949611,3.2226576.8639305,2.2390471-2.6778735,2.1988709-4.9164962-.2714018-15.1211187-14.9490258-71.6669784-22.9704801-84.2739701Z"/>
  <path id="_x33_0" class="st0" d="M130.9024755,406.2870151c-.0937917,1.1919893-.8050808,4.0321238,1.0532115,3.7576805,4.5767665-21.9729353,20.2271788-40.9482848,26.2930831-61.9997838,3.3723282-11.703663,4.4947164-24.4338712,5.1245921-36.5653262l-11.0074399,15.5165151c-8.8447135,16.2490948-19.9983582,60.67609-21.4634469,79.2909144Z"/>
  <path id="_x32_9" class="st0" d="M253.2966912,303.3495564c0,6.6174081,19.4751476,8.179047,24.1494546,6.8175112,6.4846426-1.8889197,11.4678398-18.3630156,5.3859498-23.6206561l-27.7530083-5.4796001c-.6066753.0954186-1.7158365,2.3652344-1.7823961,2.7836897-.8115175,5.1041503,0,13.8609429,0,19.4990552Z"/>
  <path id="_x32_8" class="st0" d="M247.7324947,285.0808984c-.9220022-2.9546509-6.456208-1.6702846-8.7457583-1.4481128-4.0656512.3944061-21.1652373,2.7396232-23.0016025,5.14659-3.0922263,4.0531315.6569663,16.5666851,4.2361173,19.4811598,4.2663909,3.474042,23.8315106,1.4003682,26.616615-2.7039031,1.2878323-1.8979028,2.2135833-6.3979949,2.2093393-8.7138578-.0028293-1.4995356-1.0163597-10.8059221-1.3147107-11.7618761Z"/>
  <path id="_x32_7" class="st0" d="M221.0587276,314.9760499c-3.5589213,3.0207861-2.5574862,21.8541042,2.3759151,24.7352637,1.5827174.9242656,12.8921156,2.2416642,15.0975647,2.047149,13.258936-1.1692134,11.0901973-19.6462502,8.3379129-28.7277065-1.3468234-.9537612-24.4555155.7944709-25.8113927,1.9452937Z"/>
  <path id="_x32_6" class="st0" d="M252.1586003,330.4869064c1.2062773,12.252691,10.6590808,11.7874106,20.7073838,9.7677767,12.8894985-2.5906599,10.2798822-14.2771348,7.2609352-24.1886406-18.6238075-2.9966662-30.6210116-12.5241636-27.968319,14.4208639Z"/>
  <path id="_x32_5" class="st0" d="M227.5696121,618.8568636c-9.5598222,24.8159699-3.3500474,50.9583921-2.4383722,76.6517317.0465422,1.3102546-.8113761,4.0313458,1.0712484,3.773454,5.9073921-28.7577679,15.9876664-56.6337099,4.3331627-85.5659756-1.6239546.2446648-2.4141108,3.7080261-2.9660389,5.1407899Z"/>
  <path id="_x32_4" class="st0" d="M187.2029631,361.3131139c-1.6260766.2470697-2.4055521,3.6999626-2.9667463,5.1371825-4.5981985,11.7749616-7.9710218,25.3013384-9.8400656,37.82338-2.536903,16.9957504-4.1296644,36.8525722-3.4286315,53.9961541.0538277,1.3165498-.8181664,4.0280213,1.0723094,3.7751515.3337881-24.2968618,10.8453203-46.1414877,16.1821108-68.8610078,2.7001543-11.4948597,5.315217-21.0899069-1.0189769-31.8708603Z"/>
  <path id="_x32_3" class="st0" d="M309.7036317,373.6201277c.0870014,14.9691139,12.9906465,38.934168,14.5596416,54.8366721l5.9351194,34.6710308c2.5765841-33.4768488-1.8026257-69.6586617-14.6082351-100.7346268-2.2493741,3.0751089-5.9092312,7.3187239-5.8865259,11.2269238Z"/>
  <path id="_x32_2" class="st0" d="M272.880672,615.1305836c-.0547946-.2059628-.2288402-.3677492-.4393316-.4011635-2.0683597-.32834-1.4118676.2853981-2.0619662,1.4500614-12.6981794,22.7490115-1.8178709,52.7395507,2.3544408,77.1185216.1056798.6174909.9936708.595795,1.0663222-.026447.4523601-3.8743605.9758827-8.6663191,1.4936047-14.1412765,1.690918-17.8812256,2.536377-26.8218384,1.8843384-37.6508789-.3903601-6.4827524-1.4237245-15.5471676-4.2974083-26.3488171Z"/>
  <path id="_x32_1" class="st0" d="M198.6450562,169.5104891c4.3693072,1.583071,31.9103293,6.3071032,34.0646385,4.3804829.292268-2.5951161-4.2759398-7.8412271-1.0922561-9.7348859-.8370521,2.7046105,8.143044,13.7431728,9.7574497,11.9025636-5.4914832-14.6153791-.7997759-33.3639592-14.623867-43.3204511,2.0522418,15.8538399.5957117,22.5542175-13.8918532,29.4288101-5.0766353,2.4089473-11.4063022,4.7879747-16.9760159,5.2416549.1655148,1.6287644,1.5975713,1.679975,2.761904,2.1018255Z"/>
  <path id="_x32_0" class="st0" d="M246.2621011,251.8995006c-5.1593219,3.8172376-11.2414241,7.4399599-17.1438649,9.9391623-3.0410864,1.2876201-13.7179212,3.8088911-14.8446949,4.6514603-2.3419633,1.7510614-.8252397,9.0813148.6288854,11.339389,4.2248,6.5609633,31.2408432,3.3413472,32.9778288-4.8118116.8576353-4.0253335,0-13.581902,0-18.4157823,0-.1574512-1.304596-2.843459-1.6181545-2.7024177Z"/>
  <path id="_x31_9" class="st0" d="M273.8847488,140.8537984c-.0922356-2.1863512,2.0343464-5.0648936.5411767-7.0323267-11.3885483,8.0382887-8.1585345,13.9330904-9.3464921,25.318385-.6068875,5.8160053-2.7493843,11.7014703-5.2826799,16.9136296,1.9950189,1.8776732,11.2215481-7.9687584,10.846452-10.8137735,3.7494048,1.5271921-3.4200021,7.5514348-2.1751754,8.6521081,10.8306079-.5213715,23.4308092-.4500021,33.8084442-3.5526261,1.3311208-.3980135,4.9830557-1.3325354,5.1789856-2.9305311-17.437689-1.9264081-32.7204321-6.3941753-33.5707112-26.5548653Z"/>
  <path id="_x31_8" class="st0" d="M270.9784791,262.9188943c-6.1761061-2.6118797-11.6736723-7.0014165-17.6817879-9.9418501v17.8741104c0,.2777677,2.3500269,4.3702974,2.7659358,4.8170458,3.8259377,4.1102129,22.637753,7.1073742,27.5472466,4.9147986,3.3288275-1.4866622,6.2239922-10.7934024,3.2900659-13.0087541-1.0803022-.8156908-12.5562055-3.2321358-15.9214604-4.6553506Z"/>
  <path id="_x31_7" class="st0" d="M252.4609124,180.0692708c7.0507173-10.1733586,11.3792116-22.9684289,10.5744844-35.4200206l-12.37131,6.4973037-12.5223245-7.5807889c.1131018,13.6758352,5.4995467,26.1796984,11.9256225,37.906491,2.5700059.6121925,1.7423613-.4633706,2.3935276-1.4029853Z"/>
  <path id="_x31_6" class="st0" d="M285.7504607,337.9700133l1.1158808,11.4125267c7.2134734-18.8989581,20.2619793-35.4101887,22.7507133-56.3232636-2.9833685,2.2623889-4.0864466,6.2164945-6.5158357,9.1806236-3.8946193,4.7519717-12.4665163,11.1765621-14.8553048,16.5598241-2.4576115,5.5382376-.5991776,13.2256916-2.4954535,19.1702891Z"/>
  <path id="_x31_5" class="st0" d="M215.3708194,349.383601c.6325635-10.6684883-1.3517747-21.1426028-2.3871616-31.7197751l-19.2567954-19.1885382,5.9607954,20.5684646,15.6831616,30.3398487Z"/>
  <path id="_x31_4" class="st0" d="M212.1212126,311.473927c-2.1103841-7.0826177.4436362-14.7705669-3.0261618-21.3365522-3.0866384-5.8408325-12.3612659-7.4120912-14.8320337-14.4067173-5.1779954,2.4626335-1.0829193,15.6306779,1.0235038,19.5489219,3.4065629,6.3365988,11.4858766,11.5724536,16.8346918,16.1943476Z"/>
  <path id="_x31_3" class="st0" d="M307.4491649,277.8972742c-1.8551801-.4745464-2.1671118.7611558-3.2506678,1.6081812-2.4363916,1.9046931-11.2576219,9.3602142-12.3633879,11.4684056-2.8774815,5.4860368-1.2632173,15.2653429-2.7791628,21.5835512,11.2678074-7.157736,21.621181-20.826215,18.3932185-34.660138Z"/>
  <path id="_x31_2" class="st0" d="M146.0397213,325.5501806l-.5295058-74.7507167c-3.7068237,13.9081925-5.1994274,28.3755985-4.9261866,42.8520584l5.4556924,31.8986583Z"/>
  <path id="_x31_1" class="st0" d="M209.959618,285.4701411c.5650137-10.7145354,1.3012008-22.6400164-13.0631476-21.204777-4.2019533,10.4349993,3.0545964,19.0880269,13.0631476,21.204777Z"/>
  <path id="_x31_0" class="st0" d="M304.2104509,263.8056716c-5.1217628-.3005437-12.008875,1.3912436-12.9989222,7.045483-.7963807,4.548049.57817,10.9080603,0,15.7075644,10.9889079-5.1211969,14.8437753-10.1220773,12.9989222-22.7530474Z"/>
  <path id="_x30_9" class="st0" d="M355.2044217,313.0215609c.0017683.9066532.5391255,4.0975517,2.0762202,3.8636383-.400277-11.095573,4.4027638-23.1008407,4.434735-34.1176173.0157027-5.3921743-1.5695611-15.7515602-2.5505544-21.3726259-.6721032-3.8513308-1.8845343-8.1254316-3.4980204-11.678765.6178511,16.4094461,2.4001057,32.8352315,1.6693651,49.3447645-.1933835,4.3707925-2.139809,9.7999601-2.1317454,13.9606055Z"/>
  <path id="_x30_8" class="st0" d="M349.6980846,317.9734235l-5.2119471-13.734402-8.8497355-14.4243298c1.5038503,10.4292699,5.9847738,21.2763586,14.0616827,28.1587317Z"/>
  <path id="_x30_7" class="st0" d="M154.165931,313.6292265c-.3310296,1.1638377-1.7208585,5.4009452.538206,5.4194772,5.2155545-9.0958857,10.4736901-18.6750887,11.9197517-29.2340119l-7.0529807,11.8879927c-1.6440427,3.7774857-4.2913596,8.0113395-5.404977,11.9265421Z"/>
  <path id="_x30_6" class="st0" d="M289.0374851,104.5643301l3.2460701-23.82373-4.0478973,8.393226c-1.0812925,4.908857-7.1621922,14.2636248.8018271,15.430504Z"/>
  <path id="_x30_5" class="st0" d="M213.7568381,104.5457982c1.9846212-1.5293848,3.2107745-3.1896253,2.6822589-5.7969075l-6.4626447-15.8414616c-.4727781,3.0309716,1.1204784,21.6242933,3.7803858,21.6383691Z"/>
  <path id="_x30_4" class="st0" d="M314.8078528,265.1991079c.371418-1.5216042.2810215-3.094419.2301646-4.6336357-18.2531675,2.9910076-3.2517287,17.0112408-.2301646,4.6336357Z"/>
  <path id="_x30_3" class="st0" d="M191.6534716,275.178305c-.0374177-4.3190869-4.9412527-4.9938071-5.5409962-9.1935677l-2.159402.54535c-.8491474,9.0895905,7.7764359,17.4169642,7.7003981,8.6482178Z"/>
  <path id="_x30_2" class="st0" d="M185.0611737,256.2320974c-.9647955,5.7345919,2.3910519,11.8170477,7.560913,14.0772439l-.5508671-6.4803279-7.0100459-7.596916Z"/>
  <path id="_x30_1" class="st0" d="M317.1993291,268.1430782l-9.2713738,7.5819914,1.7272245,4.3223406c2.5248784,1.8278065,8.1595248-9.3567483,7.5441493-11.904332Z"/>
  <path id="_x36_5" class="st0" d="M224.037074,702.0057577c.6953743,10.1981858.0116002,20.6629636,1.089356,30.8611495h-12.9911416c.6142437-18.3915209-3.4186582-36.48172-5.4119795-54.7110506-1.089356-9.9431941-1.0661556-20.210981-2.3177727-30.1889756-3.4650589-27.6626118-11.1021512-54.873241-10.6732981-82.9994356,1.3790069.2549918,2.3641027,1.970121,2.7349548,3.1985377,1.3790776,4.5660151,1.703529,10.3025167,2.3293729,15.8651571.3823816,3.3375984.8691648,6.6056664,1.749859,9.5144825.7185746,3.3839284,3.5230598,16.5951905,4.4964847,19.2838153.4635828,1.2632173,1.7615299,2.0512515,3.3839991,2.0512515h.0231296c4.0561023,0,10.0359955-4.5312146,15.6565661-16.7111215.0232004-.0232004.0348005-.0464007.0348005-.0695304,1.5065381-2.7697554,2.6538243-5.1686586,2.8972159-5.7713022,2.2018416-5.284519,3.2332675-11.1600813,5.1801881-16.4909303.4403825-1.2400169,1.135686-4.3690242,2.653895-4.3690242,1.3674774,15.8883575-7.8572835,28.7867684-11.6004638,43.0989866-7.8108828,29.9572549-1.2748174,57.6314669.7648339,87.4379902Z"/>
  <path id="_x36_4" class="st0" d="M223.4576309,593.870074c-.0116002.0116002-.0116002.0232004-.0232004.04633-5.9914227,14.6367404-12.1567066,18.6465127-14.9843922,18.6465127h-.0116002c-.6257732,0-1.1008855-.2085911-1.2168165-.521513-.4751123-1.3095472-1.448608-5.4583095-2.3873031-9.6187427-.822764-5.4235797-2.1323113-11.4382027-3.1290073-17.3137651-.0231296-.1506609-.04633-.3013218-.0695304-.4519827-.0231296-.1390607-.04633-.2897216-.0695304-.4403825-1.2168165-7.3821005-1.8541899-14.4860795-.3244514-19.851729,1.448608-5.1106577,5.7249015-9.21309,6.5708659-14.5671393l16.062148,25.6924908c-.4751123,8.8191082-10.9746199,9.3869512-17.9511384,9.0045697l9.9316646.9850251,8.1817349-4.2646933c.6605737,4.8441365.4171821,8.911839-.5794432,12.6550193Z"/>
  <path id="_x36_3" class="st0" d="M276.1937801,701.9347892c-.6953743,10.1981858-.0116002,20.6629636-1.089356,30.8611495h12.9911416c-.6142437-18.3915209,3.4186582-36.48172,5.4119795-54.7110506,1.089356-9.9431941,1.0661556-20.210981,2.3177727-30.1889756,3.4650589-27.6626118,11.1021512-54.8732409,10.6732981-82.9994356-1.3790069.2549918-2.3641027,1.970121-2.7349548,3.1985377-1.3790776,4.5660151-1.703529,10.3025167-2.3293729,15.8651571-.3823816,3.3375984-.8691648,6.6056664-1.749859,9.5144825-.7185746,3.3839284-3.5230598,16.5951905-4.4964847,19.2838153-.4635828,1.2632173-1.7615299,2.0512515-3.3839991,2.0512515h-.0231296c-4.0561023,0-10.0359955-4.5312146-15.6565661-16.7111215-.0232004-.0232004-.0348005-.0464007-.0348005-.0695304-1.5065381-2.7697554-2.6538243-5.1686586-2.8972159-5.7713022-2.2018416-5.284519-3.2332675-11.1600813-5.1801881-16.4909303-.4403825-1.2400169-1.135686-4.3690242-2.653895-4.3690242-1.3674774,15.8883575,7.8572835,28.7867684,11.6004638,43.0989866,7.8108828,29.9572549,1.2748174,57.6314669-.7648339,87.4379902Z"/>
  <path id="_x36_2" class="st0" d="M276.7732233,593.7991056c.0116002.0116002.0116002.0232004.0232004.04633,5.9914227,14.6367404,12.1567066,18.6465127,14.9843922,18.6465127h.0116002c.6257732,0,1.1008855-.2085911,1.2168165-.521513.4751123-1.3095472,1.448608-5.4583095,2.3873031-9.6187427.822764-5.4235797,2.1323113-11.4382027,3.1290073-17.3137651.0231296-.1506609.04633-.3013218.0695304-.4519827.0231296-.1390607.04633-.2897216.0695304-.4403825,1.2168165-7.3821005,1.8541899-14.4860795.3244514-19.851729-1.448608-5.1106577-5.7249015-9.21309-6.5708659-14.5671393l-16.062148,25.6924908c.4751123,8.8191082,10.9746199,9.3869512,17.9511384,9.0045697l-9.9316646.9850251-8.1817349-4.2646933c-.6605737,4.8441365-.4171821,8.911839.5794432,12.6550193Z"/>
  <path id="_x36_1" class="st0" d="M148.0262523,212.8461477c5.3459858-8.8950045,11.1467836-17.5505078,18.0152224-25.3513465,3.4235387-3.888324,7.2174345-7.2748695,11.4337466-10.2861775,1.8470459-1.3190962,3.8460966-2.3997521,5.839913-3.4807616-.9229217.0319712-1.8040403.0903258-2.6044528.1799443-22.8170606,1.3449844-31.5304233,19.6371257-32.9157962,39.3652138.0812013-.1412534.1468413-.2863264.231367-.4268725Z"/>
  <path id="_x36_0" class="st0" d="M187.7463519,173.876074c-.0792473.0061441-.1584993.0133839-.2377504.0217561-3.5687923.3770124-6.6903663,3.5743206-9.4693662,5.5724544-8.3331888,5.9916615-14.9434672,13.8219619-20.7028202,22.2524886-.2867639.4197629-.5719965.8405718-.855965,1.2622307-1.3738434,2.040005-2.7017812,4.1107787-3.989472,6.2061675-1.2690881,2.0651859-2.6661318,4.0762611-3.7846297,6.2287313-.4740513.9123825-.8202884,1.8580802-1.1158808,2.8172171-.0864355,8.3215737,1.0131768,16.6681867,2.808234,23.898919l7.1216623-12.8971377c15.9145969-15.7466832,29.7912441-33.3209009,42.6114066-51.6592232.0072309-.0103433-4.6882867-2.018538-5.1254532-2.1774255-2.2982136-.8352823-4.7767622-1.7187012-7.2599653-1.5261782Z"/>
  <path id="_x35_9" class="st0" d="M354.7456689,212.8461477c-5.3459858-8.8950045-11.1467836-17.5505078-18.0152224-25.3513465-3.4235387-3.888324-7.2174345-7.2748695-11.4337466-10.2861775-1.8470459-1.3190962-3.8460966-2.3997521-5.839913-3.4807616.9229217.0319712,1.8040403.0903258,2.6044528.1799443,22.8170606,1.3449844,31.5304233,19.6371257,32.9157961,39.3652138-.0812013-.1412534-.1468413-.2863264-.231367-.4268725Z"/>
  <path id="_x35_8" class="st0" d="M315.0255693,173.876074c.0792473.0061441.1584993.0133839.2377504.0217561,3.5687923.3770124,6.6903663,3.5743206,9.4693662,5.5724544,8.3331888,5.9916615,14.9434672,13.8219619,20.7028202,22.2524886.2867639.4197629.5719965.8405718.855965,1.2622307,1.3738434,2.040005,2.7017812,4.1107787,3.989472,6.2061675,1.2690881,2.0651859,2.6661318,4.0762611,3.7846297,6.2287313.4740513.9123825.8202884,1.8580802,1.1158808,2.8172171.0864355,8.3215737-1.0131768,16.6681867-2.808234,23.898919l-7.1216623-12.8971377c-15.9145969-15.7466832-29.7912441-33.3209009-42.6114066-51.6592232-.0072309-.0103433,4.6882867-2.018538,5.1254532-2.1774255,2.2982136-.8352823,4.7767622-1.7187012,7.2599653-1.5261782Z"/>
</svg>