<?xml version="1.0" encoding="UTF-8"?>
<svg id="Female_Back" xmlns="http://www.w3.org/2000/svg" version="1.1" viewBox="0 0 500 800">
  <!-- Generator: Adobe Illustrator 29.3.1, SVG Export Plug-In . SVG Version: 2.1.0 Build 151)  -->
  <defs>
    <style>
      .st0 {
        fill: #fff;
      }
    </style>
  </defs>
  <path id="Black_Back" d="M389.9,435.8c-1.7-29.2-.9-63.9-4.6-92.3-2.3-17.3-11.8-30.6-14.1-44.2-.9-5.4-.4-13-1.2-18.6-2.5-16.4-8-30.3-7.6-46.2.3-14.6-.2-28.8-6.1-42.4-8.4-19.4-27.7-21.1-45.6-27.5l15.6-3.6c6.8-2.5,12.7-5.5,18.1-10.4.7-.7,2.1,0,1.4-2.5-45.4-3.5-41.4-52.5-50.1-84.8-14-51.9-79.7-50.3-92.5,0-5.8,22.7-2.6,46.7,11.6,65.5,3.6,4.7,7.6,4.3,6.3,11.9-1.8,10.8-11.2,15.4-19.9,19.7-12.3,6-20.2,7.7-32.9,11.1-19.3,5.1-27.9,25-29.3,43.3-.6,8.3,1.8,16.7.9,24-.7,5.6-4,13-5.1,19.1-2.4,13.4-2.2,28.6-5,41.2-2.2,10-9.3,20-12.1,30.8-5.6,21.4-2.9,44.5-4.1,66.3-1,19.1-4.5,39.7-5.5,58.3-.8,16,10.4,34.5,25.7,40.4,3.2,1.2,9.1,4.1,10.5-1,2-7.3-15.8-17-14.2-26.2l2.2-11.5c2,7.9.1,18,9.2,21.9,7.4-5.1,2.3-11,1.8-17-.5-6.2.9-13.8,0-19.7-.8-5-6.4-11-7.4-15.7-3.2-15.2,20.2-50.6,25.3-67.7,4.5-15.2,3.8-28.9,7.1-43.6,3-13.6,10-27,12.5-40.9,1.5-.3,1.2,1.1,1.6,2.2,4,11.3,14.1,39.3,13.9,50.1-.3,14.5-17.3,39.2-22.9,54.2-15.8,41.8-17.3,78.7-7,122,8.4,35.1,24,64.7,21.1,102.2-.7,9.7-4.7,20-5.5,29.7-3,38,16,73.4,18.6,110.8-5.3,10.4-27.8,15.7-16.9,28.4,8.8.2,43,4.8,48.4-.9,1.6-1.6,1.3-9,1.1-11.5-.5-5.3-1.2-10.7-1.9-16.2-3-33.6,12.3-66.4,10-99.5-.5-7.7-3.5-16-4.3-23.2-1.6-15.8,4.9-27.5,6.5-42.8,2.4-23.6,4.5-52.2,5.6-75.9.6-14.4-1.2-29.9,0-44.1.1-2-.3-3.6,1.7-4.9,2,1.3,1.6,2.9,1.7,4.9,1.1,14.5-.7,30.5,0,45.2,1,24.1,3.3,51.8,5.6,75.9,1.1,11.7,7.6,25.3,7.7,34.2.2,8.9-4.8,21.3-5.5,30.8-2.4,30.9,13.5,64.8,12.3,96.6-.7,6.5-1.6,12.9-2.1,19.1-.2,2.5-.4,9.9,1.1,11.5,5.2,5.7,37.9,1.1,46.3.9,11.6-14.2-16.8-19.2-17.1-32.4,0-.2,0-.3,0-.5,3.6-23.4,12-45.9,16.5-69.2,6.9-35.9-7.6-62.2-1.7-96.3,6.3-36.2,25-70,27.4-108,2.9-46.3-11.4-75.8-29.6-115.8-14.2-31.2-2.6-45.7,6.4-75.8.5-1.6-.7-1.9,2.2-1.6,1,12,8.2,23.6,10.7,35,3.3,15.1,2,29.5,6.6,45.1,5.3,17.9,27.5,50.2,26.6,66.7-.3,6.6-5.6,13.3-6.4,20.1-.7,6,.3,12.5-.1,18.6-.4,6.2-5.5,16.2.8,20.2,7.9,1.9,10-17,11.3-21.9,1.6.3,2.2,6,2.2,7.1,0,2.6-1.2,6.2-2.4,8.6-4,8.3-16.6,14-12,23.4,6.5,4.6,21.7-9.3,25.2-14.6,11.7-17.6,6.7-27.5,5.7-46Z"/>
  <path id="_x33_7" class="st0" d="M303.3,689.5c-2.8,3.1-6.1,5.8-9.1,8.6-2.2,2.1-4.9,4.2-8.1,3.5-3.3-.7-6.3-3.3-8.6-5.6-1.3-1.4-2.3-3-3.3-4.6l-2-2.4,7.7,56.7h12.1l15.4-60c-.1-.2-.2-.4-.3-.5-1.2,1.5-2.5,3-3.7,4.4Z"/>
  <path id="_x33_6" class="st0" d="M295,589.6c-4.5-.6-10.5-1.2-13.5,3.1-3,4.3-7.2,17.5-8.9,23-7.1,23.6-9.3,45.9,0,69.3.9,2.3,2.7,4.6,3.7,6.8.7,1.1,1.5,2.1,2.4,3,1.1,1.2,2.4,2.3,3.8,3.2,1.3.9,2.9,1.8,4.5,2,2.9.2,5.3-2.4,7.3-4.3,2.6-2.2,6.3-5.6,9.6-10.6,1.2-1.8,5.4-8.3,7.6-21.8,4.4-27.7-1.9-50.3-16.4-73.7Z"/>
  <path id="_x33_5" class="st0" d="M227,370.3c-2.7,0-5.4-.2-8.1.1s-5.1.4-5.1,2.1c15.2-2.4,21.6,4.1,27.7,16.9,12.5,26,10.9,61.7-20,72.8-44.9,16.1-63.7-18.4-49.5-57.8l5.5,6.6c-4.7-9.6-3.1-16.6.9-26.1,8.1-19.1,31.8-27.8,48.6-14.7Z"/>
  <path id="_x33_4" class="st0" d="M322.8,414.4l6.6-9.9c13.5,38.9-2,73.6-47.6,58-30.1-10.3-33.6-42.1-23.1-68.7,3.5-8.8,10.8-24.4,22.2-21.3l-.5-2.2-6.1,1.1c9.1-13.1,33.4-6.9,42.4,3.3,5.4,6.1,11.5,20.9,10.2,28.9-.6,3.9-3.6,6.9-4.1,10.7Z"/>
  <path id="_x33_3" class="st0" d="M249,375.9c1.4,1.8,2,0,2.2-1.6.7-5.7-.4-12.7,0-18.7.4-5.5,2-12.1,2.2-17.6.8-16.3-3.2-35.8,6-50.1,1.1,0,7.4,14.1,8.9,16.4,3.1,5.1,12.7,15.3,14.2,18.8s.9,2.4.7,3.8c-4.1,13.4-8.4,27.1-14.2,39.9-5.2,11.6-13.4,22.2-16.7,34.5-2.9.5-1.7-.4-2.3-1.6-12.3-23.9-25.1-48.1-33-73.8,8.8-12.2,19.5-23.2,24.3-38,2.6-1.9,6.4,17.4,6.6,19.3l1.1,68.8Z"/>
  <path id="_x33_2" class="st0" d="M247.9,287.8l-14.6-38.8c-8.1-20.5-10-43.6-22.8-61.9l9.9,3.3c-10-7.8-21.4-13.9-33-18.7,10.8-3.5,31.4-12.2,37.3-22.2,1.8-3.1,1.7-5.5,2.4-8.6.2-1-.5-2.5,1.6-1.6,5,2,12.2,9.7,19.1,10-.6,12.2.8,25.2-6.5,35.6l6.6-8.2v111.2Z"/>
  <path id="_x33_1" class="st0" d="M253.4,176.7l7.7,8.2c-8.5-10.1-6.1-22.4-7.7-34.7,10.8,4.9,22.2,6,33.6,9.9,9.8,3.4,19,8.9,29.2,11.6l-16.2,6.9c-2.6,1.3-18.4,11.3-19,12.9s-.3,1.8.5,1.6l11-7.7c1.8,1.4-1.5,3.5-2.6,5.1-10.3,16.3-13.5,34.7-20,52.7l-16.5,43.4v-110Z"/>
  <path id="_x33_0" class="st0" d="M303,283.4c7.2-6.1,9.8-16.4,13.1-24.9,1-2.7,1.5-3,1.2.1-1.8,20.4-15.8,42.4-17.6,63.3l-9.9-12.1c3,7.7,11.2,14,9.3,23.1-12.7-9.7-37.5-38-36.9-54.4.1-3.4,7-21.9,9.5-23.6,15.2-6,32.4-5.9,46.6-14.4-.5,7.4-3,14.6-5.5,21.5s-6.5,14.3-9.9,21.4Z"/>
  <path id="_x32_9" class="st0" d="M201.7,331.8c.6-9.3,7.8-15.9,11-24.2l-11,14.3c-1-18.6-13.6-37.7-15.4-55.6-.3-3,.3-2.9,1.2-.1,2.1,6.6,4.6,13.1,8.8,18.7.8,1,2.2,3.5,2,.2-8.5-13.9-13.3-31-16.5-46.8,13.9,10.7,32.7,9.9,48.4,17.1,1.5,1.2,8.4,20.7,8.6,23.4,1.4,14.3-18,35.1-26.7,45.3l-10.4,7.7Z"/>
  <path id="_x32_8" class="st0" d="M308.5,608.1l-7.5-13.9c-10.7-25.3-19.8-70.5-17.8-97.8.3-3.7,3.7-25,6.2-25.8,2.6-.2,4.9,1,7.5,1.1,6.7.1,14.8-3.4,15.9,3.9,1.5,9.6.5,30.2.1,40.7-1,23.7-4.9,47.7-5.6,71.4-.2,6.9.3,13.6,1.1,20.4Z"/>
  <path id="_x32_7" class="st0" d="M213.8,471.6c7.9,29.6,4.5,61.7-3,91.1-3.5,13.9-8.7,28.9-16.3,41-1.3-18-.7-36.4-1.7-54.5-1-17.5-3.9-35.3-4.4-52.8-.2-7.8-1.2-18.2,2.8-24.8h22.6Z"/>
  <path id="_x32_6" class="st0" d="M178.6,176.7l-12.7,8.8-6,8.8c7.9-10.5,23.6-21.1,36.7-13,7.2,4.4,4.6,8.6,1.3,15.3-3.4,6.9-11.9,16.5-19,19.5-2.8,1.2-5.6,1-8,1.9-8.7,3.5-16.9,11.3-24.2,17.1-.7-10.7-1.7-19,.5-29.7,3.5-16.6,13.3-28.9,31.4-28.6Z"/>
  <path id="_x34_1" class="st0" d="M134.6,319.7c0-2.5-.4-4.4-.5-5.4-.3-1.8-.8-4.1-1.7-6.7-4.8,13-10.9,26.1-12.1,40.2-.9,10,.7,21.2,0,31.4l6.9-28.9c3.7-9.1,5.4-18.8,7.5-28.4,0-.7,0-1.5,0-2.2Z"/>
  <path id="_x34_0" class="st0" d="M169.9,225.5l-4.3.8-.2,5.3c-2.5.2.5-4.1-2.7-3.3-2.2.5-22.2,19.7-25.9,56.7-.7,7.2-.9,16,.4,26.3,1.5-5.6,3.5-11,6.4-16.2,3.8-6.8,9.5-12,13.7-18.2,9-13.7,16.9-35.3,12.6-51.4Z"/>
  <path id="_x32_4" class="st0" d="M355.8,236.1l-17-13.2c-13.7-6.5-24.4-11.2-32.3-24.9-4.6-8-7.7-12.7,2.3-18.2,12.4-6.7,27.3,6.7,33.8,16.7-2.8-8.7-10.9-16.4-19.8-18.7.2-2,5.9-1.2,7.1-1,15.2,2.9,25.9,22.3,25.9,36.8v22.6Z"/>
  <path id="_x33_9" class="st0" d="M365,303.4c0-2,0-4,.2-6-1.8-28.6-2.7-62-33.5-71.2-4.7,10.2,0,24.7,4.1,34.8,7.1,17.7,21.8,29,27.7,46,.5,1.4.9,2.7,1.3,4.1,0-2.6.2-5.1.2-7.7Z"/>
  <path id="_x33_8" class="st0" d="M381.1,377.5c1.2-4.8,3.2-15.2-1.1-35.5-1.9-8.8-5.3-20.9-11.7-34.7-.6,3.7-1.3,7.3-1.9,11,1,5.3,1.6,10.5,3,15.9,3.9,15.6,10.1,30.8,10.7,47.1.3-.9.7-2.2,1.1-3.8Z"/>
  <path id="_x32_2" class="st0" d="M285.4,470.5l-11.1,58.8-12,33.6-4.5-57.7c.7-15.2-1.9-31.2,2.8-45.7,7.2,4.9,16,9.8,24.8,11Z"/>
  <path id="_x32_1" class="st0" d="M242.4,460.6c.3,13,1.6,26,1.1,39.1-.7,18-2.7,38.1-4.4,56.1-.1,1.3-.3,4.9-2.2,4.9-2.7-18.2-10-35.6-14-53.7-2.5-11.1-4.3-22.5-5.9-33.8l.8-1.8,24.6-10.9Z"/>
  <path id="_x32_0" class="st0" d="M312.9,564c-1.9.3-1-2.5-1.1-3.8-.1-3.2-.2-6.8,0-10,1.1-26.4,5.2-52.6,3.3-79.2l.6-1.6c7-5,13.1-10.5,16.7-18.5l3.6-10.1c2.8,23.9-2,48.5-8.2,71.5-4.7,17.3-12.4,33.9-14.9,51.7Z"/>
  <path id="_x31_9" class="st0" d="M176.8,461.3c2.4,2.6,7.3,5.4,9.6,8.6l1,2.3c-3.5,30.4,4.4,61.3,3.3,91.9l-15.3-50.2c-5-22.9-12.2-47.4-8.9-70.9l5.3,11.8c1.7,2,3.3,4.7,5,6.5Z"/>
  <path id="_x31_8" class="st0" d="M231.4,609.2l-9.9-21.4c-2-8.1-7.3-18.4-7.6-26.6-.6-15.8,9.1-36.4,6.5-53.2,1.6-.3,1.5,1.9,1.9,3.1,6.5,20.1,18.1,58.8,14.4,78.7-1.2,6.1-5,12.9-5.3,19.5Z"/>
  <path id="_x31_7" class="st0" d="M271,610.3l-6.5-20.4c-.7-12.7-.2-24.7,3.8-36.8l12.6-40.7c-1.4,14.6,7.2,34.1,6.7,47.8-.2,4.6-4.6,18.4-6.3,23.5-3.1,9-8.2,17.3-10.2,26.6Z"/>
  <path id="_x31_6" class="st0" d="M123.5,419.8l-4.4-.4c-2.3-1.6.6-26.3,1.3-30.8,2.3-15.2,7.1-31.9,11.8-46.5l6.8-13.5c6.4,15,1.5,32.4-2.5,47.6-3.8,14.6-9.7,28.9-13,43.7Z"/>
  <path id="_x31_5" class="st0" d="M377.9,420.9c-2.7-17.3-9.9-33.4-14-50.3-3.2-13.3-8.1-29.9.2-42.1,8.3,16.3,11.4,34.6,14.7,52.4,1.7,9,4.2,18,4.6,27.4.2,5.3,2,14.3-5.4,12.6Z"/>
  <path id="_x31_4" class="st0" d="M340.4,316.4c20.5,30.9,24.9,69,33,104.5-3.3.5-1.8-.8-2.2-2.7-7-28.4-24.1-49.4-29.4-76.3-1.6-8.3-1.9-16.8-3.6-25l2.2-.5Z"/>
  <path id="_x31_3" class="st0" d="M130.2,421l-.8-3.5c6.8-29.8,10.6-61.9,25.5-88.9l7.2-11c-.3,17.9-4.2,34.9-10.8,51.4-7,17.3-18.7,33.1-21.1,52.1Z"/>
  <path id="_x31_2" class="st0" d="M312.9,366c-9.5-4.2-16.9-6.7-27.6-5s-8.7,3.1-13.1,5l14.3-37.4c8.7-1.1,28.3,35.5,26.4,37.4Z"/>
  <path id="_x31_1" class="st0" d="M229.2,364.9c-3.8-.6-6.8-3.5-10.7-4.1-10.9-1.8-20,1.3-30,4.7,5-14.1,12-29,25.3-36.9l15.4,36.3Z"/>
  <path id="_x31_0" class="st0" d="M296.3,192.1c5.2,12.7,16.3,24.6,28.7,30.3-3.2,14.2-17.4,19.8-30.4,22.3-5-4.6,3.5-10.1,3.9-15.1l-9.3,12.1c-9.5-10.4-7.7-22.7-3-34.9.8-2.1,7.6-16.5,10.1-14.7Z"/>
  <path id="_x30_9" class="st0" d="M211.6,242.7c-4.2-10.6-11.9-21.1-19.3-29.7-1.8,1.2.4,2.4,1.1,3.3,3.7,4.8,13,17.4,15.1,22.3.7,1.8,1.1,3.3.9,5.2-10.3-.4-19.6-3.7-26.4-11.6-11.1-12.8-2.1-10.9,7.1-18.2,7.8-6.2,12.1-14,17.6-22,8.7,11.1,15.1,30.4,9.9,44-.5,1.4-4.2,8-6,6.6Z"/>
  <path id="_x30_8" class="st0" d="M156.6,318.6v-29.2c0-1.7,2.7-9.5,3.6-11.8,4.5-12.4,12.3-24.3,13-38.2,1.8.7,3,5.6,3.2,7.2,1.7,15-2.9,33-7.6,47.2-2.8,8.4-5.7,18.4-12.1,24.7Z"/>
  <path id="_x34_4" class="st0" d="M344.7,314.9c0-.4,0-.8,0-1.2,0,0,0,0,0,0,0-.2,0-.4,0-.5,0,0,0,0,0-.1,0,0,0,0,0,0,0,0,0-.2,0-.3,0-.2,0-.3,0-.5-.5-8.3,0-17.6,0-26s-9-19.9-10.7-24.5c-2.8-7.3-4.8-14.8-6.9-22.3-1.6-.2-2,2.9-2.1,3.9-1.8,17,4.7,41.2,10.9,57.1,2.2,5.7,3.9,11.4,8.7,15.4,0-.2,0-.5,0-.7,0-.1,0-.2,0-.3Z"/>
  <path id="_x30_6" class="st0" d="M347,290.6c0-.3,1.3-2.9,1.6-2.7,10.9,11.3,17.5,26.5,11.2,42-.5,1.2-1.7,4.9-3.5,4.2-2.9-1.1-9.4-16.1-9.4-19.2,0-7.1-1-17.7,0-24.2Z"/>
  <path id="_x30_5" class="st0" d="M154.4,318.1c-.5,4-5.4,15.5-9.4,17-1.9.7-2.8-3.2-3.2-4.4-4.5-12.8-.5-26.3,6.8-37.1l5.8-6.9c-.9,9.8,1.3,21.8,0,31.4Z"/>
  <path id="_x30_4" class="st0" d="M294.2,588.3c-3.8-2.2-7.4-.6-11,1.1l6-18.7,4.9,17.6Z"/>
  <path id="_x34_3" class="st0" d="M197.8,689.5c2.8,3.1,6.1,5.8,9.1,8.6,2.2,2.1,4.9,4.2,8.1,3.5,3.3-.7,6.3-3.3,8.6-5.6,1.3-1.4,2.3-3,3.3-4.6l2-2.4-7.7,56.7h-12.1s-15.4-60-15.4-60c.1-.2.2-.4.3-.5,1.2,1.5,2.5,3,3.7,4.4Z"/>
  <path id="_x34_2" class="st0" d="M206,589.6c4.5-.6,10.5-1.2,13.5,3.1,3,4.3,7.2,17.5,8.9,23,7.1,23.6,9.3,45.9,0,69.3-.9,2.3-2.7,4.6-3.7,6.8-.7,1.1-1.5,2.1-2.4,3-1.1,1.2-2.4,2.3-3.8,3.2-1.3.9-2.9,1.8-4.5,2-2.9.2-5.3-2.4-7.3-4.3-2.6-2.2-6.3-5.6-9.6-10.6-1.2-1.8-5.4-8.3-7.6-21.8-4.4-27.7,1.9-50.3,16.4-73.7Z"/>
  <path id="_x30_41" data-name="_x30_4" class="st0" d="M206.9,588.3c3.8-2.2,7.4-.6,11,1.1l-6-18.7-4.9,17.6Z"/>
  <polygon id="_x30_3" class="st0" points="285.4 247.1 272.2 251.5 278.8 233.9 285.4 247.1"/>
  <path id="_x30_2" class="st0" d="M229.2,251.5l-10.9-3.4v-3.2c0,0,1.6,2.2,1.6,2.2,4-3.8,3.2-8.3,2.8-13.2l6.6,17.6Z"/>
  <path id="_x30_1" class="st0" d="M244.6,141.4c-6.2-2-12.5-7-16.5-12.1l16.5,12.1Z"/>
</svg>