<?xml version="1.0" encoding="UTF-8" standalone="no"?>
<svg
   id="Male_Back"
   version="1.1"
   viewBox="0 0 500 800"
   sodipodi:docname="male_back.svg"
   inkscape:version="1.3.2 (091e20e, 2023-11-25, custom)"
   xmlns:inkscape="http://www.inkscape.org/namespaces/inkscape"
   xmlns:sodipodi="http://sodipodi.sourceforge.net/DTD/sodipodi-0.dtd"
   xmlns="http://www.w3.org/2000/svg"
   xmlns:svg="http://www.w3.org/2000/svg">
  <sodipodi:namedview
     id="namedview1"
     pagecolor="#505050"
     bordercolor="#eeeeee"
     borderopacity="1"
     inkscape:showpageshadow="0"
     inkscape:pageopacity="0"
     inkscape:pagecheckerboard="0"
     inkscape:deskcolor="#505050"
     inkscape:zoom="1.01625"
     inkscape:cx="138.25338"
     inkscape:cy="379.33579"
     inkscape:window-width="1920"
     inkscape:window-height="1009"
     inkscape:window-x="1912"
     inkscape:window-y="65"
     inkscape:window-maximized="1"
     inkscape:current-layer="Male_Back" />
  <!-- Generator: Adobe Illustrator 29.3.1, SVG Export Plug-In . SVG Version: 2.1.0 Build 151)  -->
  <defs
     id="defs1">
    <style
       id="style1">
      .st0 {
        fill: #fff;
      }
    </style>
  </defs>
  <path
     id="Black_Back"
     d="M376.3820669,435.335498c-2.7965499-.4717999-1.4708134.7433201-1.9628595,2.1899794-1.1816968,3.4742939-6.3444068,27.953137-13.3876896,19.2339438-3.1481905-3.8972851,1.1533183-17.4466879,2.1782268-22.9386697.4577674-2.4529513.013976-5.0760342.5332252-7.8602294,1.663346-8.9187998,10.3386481-17.6806272,9.7801932-25.466008-1.0133378-14.1268711-18.6380915-40.4637114-23.5031232-56.7716556-5.8634921-19.6548568-1.5025441-37.931041-7.4318836-55.0527224-2.1862201-6.3129736-6.9429865-17.7030717-9.9532262-23.6103672-.5008804-.9829279.4828501-1.7525461-1.940828-1.3251143-7.4874075,20.043097-18.2221606,35.4405667-16.6767213,58.169398.7204051,10.5950241,2.4698777,24.6834307,3.7110892,35.4582548.8604702,7.4696499,5.4166841,17.1919933,7.0658004,25.5754117,6.6045105,33.5745717,11.9226457,67.0346712,8.6821923,101.3538715-2.9818009,31.5798472-15.0166754,59.8926808-14.9888078,92.3291497.006707,7.8065768,6.5672685,22.6734087,8.1719509,32.0075221,3.1703033,18.4410133,2.0638766,33.5095628-1.8630773,51.639394-3.8892462,17.9557434-14.7493217,43.3244266-14.7030486,60.9065084.0102602,3.898513,2.3803596,8.2263273,2.5745484,11.3165166.1564109,2.4890182-1.357436,4.894231-.4333267,8.0761138,2.2344111,7.6934992,19.5579499,15.6868088,21.0283823,22.7895151,2.9336935,14.1707732-14.6008462,10.0408363-23.6008202,10.4767178-7.163302.3469289-22.7235571,2.9596865-28.7719787-.9944118-5.5375548-3.6201239-.1859141-18.94619.3573069-24.622442.4589668-4.7958588-.4056694-10.0827941.0173155-14.9043811.8769562-9.9963874,2.8392474-15.084529,1.848589-26.113582-2.6887075-29.933525-16.993892-54.482232-14.9040977-85.7981672.4929461-7.386884,3.147663-15.3518065,3.7058795-22.4079159,1.0729667-13.5627847-5.1923181-24.2785845-7.3199291-37.414518-1.7256887-10.6544535-1.627672-21.6967719-3.0429104-32.3961199-3.374529-25.5117858-11.6904533-50.5360739-10.1490958-76.5832599l-1.8462269-12.5950107c2.5458474,30.7842599-7.161999,60.1373063-11.0674202,90.1251191-1.7260388,13.2534045-1.3907686,27.7056603-4.0994253,40.6656656-1.3683319,6.5470048-6.0452596,15.5697756-6.3223102,21.7299498-.281928,6.2686232,3.8904465,18.6198038,4.6847022,26.0767118,3.4261174,32.1662703-10.9753218,55.0153647-13.9691438,85.8035613-1.7146348,17.6331505,2.0525001,37.3521244,3.7099304,55.0204596.2507878,2.6734174.4829743,10.5820219-1.1690967,12.3434466-5.7258275,6.104831-42.0320243,1.2028182-51.3394115.9954355-12.924771-15.2425317,18.6019986-20.5808287,19.0292156-34.7866286.3637214-12.094446,1.8572998-19.387448-.5197958-32.2181005-5.821582-31.4226725-18.0188627-53.932984-15.4053189-88.083761,1.3342016-17.4338086,8.8284801-29.8614247,8.4168235-48.5490833-.5717432-25.9549893-9.5194618-47.7188486-12.9401612-72.8595888-5.7260442-42.0840808-.6488436-75.9110123,7.7396291-116.9200064,1.1519743-5.6316936,3.8723755-10.875803,4.9212623-16.5286771,1.4694376-7.9193924.4890315-15.4401399,1.1884125-23.0593451,1.001038-10.9055209,3.8821939-20.0901154,2.6679475-31.6087971-1.7085297-16.2075913-11.6297341-29.1607605-15.7494328-44.4126266-1.3169545.2254779-1.8026361,1.7204289-2.3653762,2.7532041-3.1286839,5.741953-8.2979614,17.7981857-10.4437311,24.0624754-5.6958071,16.6281526-1.3686049,33.4875863-6.3036639,51.5179118-4.8779987,17.821855-17.7557339,33.5900643-21.4791156,51.2647075-3.3911478,16.0975509,3.2262703,16.3101227,6.6022453,28.9032793,1.537979,5.7370122,1.5846285,12.8911308,2.5464022,18.9035274.6002536,3.7524031,5.1249602,13.7627884.5102143,16.3958772-5.6978033,3.2510613-12.5732857-16.1037409-12.8999016-20.3315735-1.299045.0801578-1.6574829,4.2530983-1.7336427,5.237312-1.2152688,15.7049212,13.4142466,19.8302559,13.9112384,30.6966497.5362452,11.7246423-16.2034684,2.3560033-21.0068048-1.4532984-12.5234382-9.9317537-19.0144565-25.6902091-18.250985-41.5256185.5652606-11.7242529,2.5033623-24.6701093,2.88116-36.2885923.9154691-28.1535905-3.7429198-64.7025604,4.8959911-91.1624388,2.2275947-6.8228375,6.2639852-12.9204234,7.8451064-20.1330754,2.2216043-10.1343645,1.4924222-20.6658579,3.6888663-30.8175579,1.8757247-8.6693735,8.5857968-19.4455724,9.4684192-26.9802657.6251299-5.3365532-1.3251204-13.7724821-.7414817-20.2492227,1.6750255-18.5880481,15.4367649-38.9037346,34.4439857-42.962255,16.6113327-3.546938,28.1711733-7.4896131,43.5759384-15.1782434,11.1815166-5.5807762,20.9946425-12.2539772,18.7297921-26.5207752-.213016-1.3418356-3.6173912-13.8499327-3.9862611-14.6600016-.7416408-1.6287047-3.3589069-2.4601886-4.5553785-3.8380761-4.045936-4.6594038-8.3191391-18.7363088-4.7154257-24.1311935.9296171-1.3916692,3.0255224-1.6457362,3.2466407-2.5426172.7015039-2.8453801-.3501913-8.4285416-.0071343-11.9228997,5.2194348-53.1648544,71.5121182-46.8953343,75.5114522-1.8650481.3525317,3.9693121-.7899631,10.5506536-.0054316,13.7866138.2667977,1.1004616,2.9317451,1.0508139,3.5814117,3.1572185,1.7826067,5.7797197-1.0762651,17.1330832-4.6474162,22.0567858-1.541897,2.1258809-4.6924005,3.660674-5.2446943,5.0139724-2.4538553,6.0127389-4.597402,15.6655816-3.8241819,22.0822346,1.1034726,9.1572904,6.7833605,13.3575973,14.1920195,17.5164813,15.360624,8.6227554,28.7298553,12.7846636,45.434977,17.049629,21.9648052,5.6078092,34.4631145,25.5201603,35.3825919,47.6179936.2681378,6.4441648-1.9278168,12.7783909-.7009556,19.3537822,1.1074429,5.935366,6.5947658,14.2800273,8.3009819,21.5430605,2.5306215,10.772368,1.436734,22.2077958,3.8775611,32.4940752,3.9468707,16.633138,11.5900222,25.9904634,12.8221435,45.9320383,1.8835409,30.4846399.453068,63.1786015,1.8350518,94.2233765.1855035,4.1671352,1.9384521,9.9583676,1.9338996,13.9977082-.0118134,10.4818857-10.2118711,26.6034654-18.2837227,33.0875018-4.0341673,3.2406056-21.5375251,14.8649091-21.0375681,3.3079399.2750859-6.3588647,14.0633272-16.6774457,14.0633272-23.3386656v-14.4553939Z" />
  <path
     id="_x35_6"
     class="st0"
     d="M241.1398588,273.9980872c9.4775592,16.0887116,5.8362296,33.9859727,6.504109,51.7946614.0827474,2.2064211.9203019,4.2441729,1.0095861,6.4512624.396091,9.7912988.5989317,19.6280015.9034071,29.4153473,1.6962767-.3528706,1.7335936-1.8343686,1.8900462-3.2297407,2.3238864-20.7263205-.6780903-43.6922892.9099879-64.3724034.6146498-8.0040308,2.8755495-13.1446454,6.5279468-20.0603408,1.5628617-1.2156971,3.8425515,9.3789204,4.2057953,10.236136,2.6385378,6.2266593,6.5844201,11.9396995,10.7325323,17.2456495,4.2991825,5.4991876,16.6295215,16.4603937,16.74463,23.4518493.0633065,3.8451046-16.0340459,20.2252153-19.3926414,25.2492115-7.6917537,11.5058038-14.0945052,25.5834821-21.1656337,37.5885587-7.7985627-14.4591549-15.6531003-30.2686938-25.6811876-43.3230292-3.3255239-4.3290913-14.6847455-15.0660311-14.9660663-19.6232579-.4985201-8.0757236,16.6415748-22.923525,21.3556198-30.0212363,4.5839969-6.901904,5.3752673-12.6118091,8.4817266-19.4982844.4946995-1.096662-.4396148-1.6852291,1.9401417-1.3043833Z" />
  <path
     id="_x35_5"
     class="st0"
     d="M280.7899457,168.6101646c-.7163744-.0415612-4.8035339-2.5662677-5.1223926-.011723,5.0837056,2.5241194,14.4007187,2.0132762,18.9129032,3.9404307.9234817.3944191,1.8510871.8845271,1.5290887,2.0403415-11.4658235,14.9600129-14.2854306,34.0256086-20.431323,51.4038331-2.4568721,6.9470912-5.2942182,13.9151647-8.2442193,20.6665686-4.2071717,9.628578-8.7459264,19.8900844-15.0792375,28.2773645l-.9476709-149.2160164c7.6342608.4912278,14.3526335-3.609714,20.5137237-7.4612896-2.031235,21.2253477,14.353832,28.9363817,30.1583528,37.4647207,3.9283553,2.1197951,8.4020144,4.7055405,12.7453002,5.4453281-.7553343,1.4963323-4.0396218,2.5592128-5.6216953,3.2227709-2.2097561.9268226-10.9010709,4.2276709-12.558527,4.2276709-5.1840134,0-10.7365094.2969142-15.854303,0Z" />
  <path
     id="_x35_4"
     class="st0"
     d="M247.6731265,275.8595858c-1.3993348-.2159248-1.7363208-1.7619483-2.3425543-2.7773862-8.4847063-14.2118385-16.5298819-34.1532735-21.930365-49.8801146-5.6610548-16.4856564-8.150583-33.9057524-18.5278455-48.6337369l1.1947551-1.3845562,21.093276-5.4967736c-7.0581708-.2467985-13.7238372,1.6634265-20.8783306.8232931-6.8346156-.802571-13.350414-5.3046304-20.1460326-6.4387856l23.5966954-12.2926419c12.8683302-7.8750562,21.3727239-14.5534678,19.3024823-31.5247624,3.1497272,1.1980457,5.4152001,3.4007846,8.689192,4.8240148,2.3999217,1.043265,11.4314406,2.9674101,11.722848,4.099085l-1.7741208,148.6823647Z" />
  <path
     id="_x35_3"
     class="st0"
     d="M266.9966989,368.3876451c10.4697026-2.4183483,26.9674215,10.8531614,33.3890511,18.4412606,10.8326914,12.8004169,13.6111082,26.7929464,10.6111385,43.2745041-2.8667566,15.7496972-18.0144595,16.3558479-31.1687076,12.7220926-24.6150559-6.7997112-30.6073268-26.0718393-26.2978868-49.6713518,1.0922793-5.9815799,7.1715176-23.3124786,13.4664048-24.7665055Z" />
  <path
     id="_x35_2"
     class="st0"
     d="M224.1348423,239.7265329c1.7005938,7.2318795,11.0143546,19.3530433,12.1914183,25.6469968.6377552,3.410182-2.3922219,15.4804706-3.7769717,19.1346447-5.6444641,14.8950043-21.3251228,23.1910364-27.2960857,37.9776518-15.3802961-25.3892387-31.2417007-51.5518583-33.1030085-82.0596832l5.7679122,11.4711331,6.3379459,8.1079344c-1.5747845-3.9996276-4.2445218-7.1477972-6.0350213-11.2086774-1.7624549-3.9972745-2.8708927-8.8396683-4.2100755-13.0335965,16.0919268,6.2069612,33.7407199-1.6542689,50.1238864,3.9635961Z" />
  <path
     id="_x35_1"
     class="st0"
     d="M230.6827585,367.4505238c7.5121736-.5120841,14.4178069,17.8280898,15.6536305,23.9996326,2.4395385,12.1827393,1.270812,30.7965607-7.024982,40.6436514-9.3286209,11.073054-37.2713866,19.1676911-47.0975486,6.0180199-5.6550227-7.5677247-3.1523734-28.6435001-.0105112-37.2717767,4.8713598-13.3778755,23.7138831-32.3830019,38.4794114-33.3895272Z" />
  <path
     id="_x35_0"
     class="st0"
     d="M315.7717992,260.9377773l11.1724753-16.7820284c-1.1081902,29.3003957-19.2528808,52.0969034-30.6891189,77.7481376l-1.924871.5794523c-4.9468433-12.6375272-18.8208504-21.1741546-24.7829664-32.5830316-2.3141635-4.4282947-6.6917984-19.9998771-5.8457174-24.5267469.2589711-1.3855985,11.417369-23.98909,12.4084126-24.969631,4.7306706-4.6805371,41.1642416,1.3606944,48.9698594-4.6454569-1.2001756,4.7387565-2.1350935,9.6666581-3.9452409,14.2310452-1.5604722,3.9348171-4.2563822,6.9907888-5.3628327,10.9482597Z" />
  <path
     id="_x34_9"
     class="st0"
     d="M308.3006345,449.3211997l.9722654,49.0036768c-4.1098197,26.6077855-.2483045,53.3319461,3.6831126,79.6940243l-8.5582868-14.276395c-9.2249568-24.5707438-15.8108458-50.2663741-20.9854702-76.0055601-.9616189-4.7832045-7.3008693-36.9997975-5.8908518-38.4168153,10.4309113-.1408586,20.3459143,2.1347504,30.7792308.0010693Z" />
  <path
     id="_x34_8"
     class="st0"
     d="M223.4302779,449.3298312c-.7611258,5.0362684-1.2212056,10.0628889-2.1522996,15.0912748-5.8889703,31.8034651-13.5345697,64.9925811-23.7942045,95.5793717l-10.4112312,18.9516943,5.6244197-44.255838c-1.6931641-23.5501496-1.1602371-45.5763927.0001702-69.0126797.2682956-5.4186603-.2786706-10.9372987-.0333659-16.3548996,10.0723286,1.5821133,20.6805048,1.3150159,30.7665114.0010764Z" />
  <path
     id="_x34_7"
     class="st0"
     d="M211.9654436,569.0007511c6.191508,5.3657206,11.5165287,27.5384278,13.0587521,35.8784362,2.8649302,15.4929182,4.7632289,31.9970887-.8804965,47.0636397-4.9772583,13.2873429-10.8787917,13.4618032-16.742836.4030866-7.103424-15.8187075-4.4952776-49.5420621-2.4981327-67.206964.307568-2.720463,2.2476783-17.037051,4.9973467-17.3322482.6172656.5162362,1.4627279.6717877,2.0653664,1.1940498Z" />
  <path
     id="_x34_6"
     class="st0"
     d="M301.7758142,177.9249138c12.3259977-15.0894291,29.1697274-12.2481746,42.4532085-.0105535,5.4263447,4.9991075,8.1615109,11.1810248,12.5591868,16.8083904-4.292257-13.8625975-14.4356442-22.271456-27.0319997-28.4484927,29.1078675.6529608,41.1742885,29.9844392,35.9161694,55.5100035l-63.896565-43.8593477Z" />
  <path
     id="_x34_5"
     class="st0"
     d="M173.0692778,165.8218428l-12.9879114,7.0489546c-14.7381294,10.3530501-14.210633,19.1683514-19.8695623,34.2215894-1.5263002,4.0600896-4.3843069,7.6042413-5.3655772,11.8781211,7.897777-8.1517372,7.844298-21.051716,13.2340836-30.1225845,7.1233971-11.9884912,23.1813083-22.9655128,37.6064487-21.1902384,5.7345569.7057409,9.1118186,5.7310652,13.4825192,8.8796542l-65.2556826,46.1639458c-5.7124347-28.0934182,7.9458851-56.7578619,39.155682-56.8794423Z" />
  <path
     id="_x34_4"
     class="st0"
     d="M301.3347388,568.6968686c3.0210118-.6933955,13.222409,18.4631091,14.5961491,21.7493236,7.4255224,17.7630826,9.7059125,47.171337.931503,64.6850946-5.1123864,10.2043443-9.067712,5.5994798-12.9586959-2.2971713-6.4233587-13.0360402-7.1203817-57.7868129-5.8941638-73.4446079.1638881-2.0927163,1.267016-10.220234,3.3252076-10.6926389Z" />
  <path
     id="_x34_3"
     class="st0"
     d="M289.322931,658.8372763c-5.401666,6.1059683-8.6877248,1.2349393-11.3278805-4.3422752-8.1277792-17.1695815-2.9736138-52.0552589,2.5938418-70.1435877,1.1057801-3.592613,5.3437625-14.8821833,9.5704175-14.7124075,1.2848101-.1155924,1.5924986.610958,2.1308144,1.5519505,1.5520659,2.7130587,3.4674337,19.7528676,3.8776139,24.0966887,1.4864397,15.7414419,4.0380961,51.2477485-6.844807,63.5496312Z" />
  <path
     id="_x34_2"
     class="st0"
     d="M198.720224,568.7148052c4.520637-.0726535,4.3305406,26.4594729,4.2355731,30.3315264-.3218438,13.1223563-.8445201,42.3697184-5.4678813,53.2862883-6.8982996,16.2880999-11.9034163,8.2776005-15.7580203-4.1591323-7.8345123-25.2777557-1.0756039-59.9246936,16.9903285-79.4586823Z" />
  <path
     id="_x34_1"
     class="st0"
     d="M220.6365775,669.4286985c-3.3988252,12.2278221-6.5616622,25.0080591-7.4996445,37.7223927-.310633,4.2106248.212232,8.8057326.0389662,13.1051628-.0456425,1.1325776.7035965,3.4682692-.9228216,3.2496264-1.5653071-14.715568-3.3334589-29.4343085-2.8170069-44.2843835l-1.8462279-14.4602166c.586509,13.9658041-.8062144,28.5721711-.048072,42.4674836.3923059,7.1902242,2.6018771,15.3603328,2.8705075,22.3017759.1848999,4.7778369.7520227,9.6102556-5.5867032,8.8612972-1.4335798-15.4771717-3.936242-31.0270774-8.7149828-45.8546733-.3152427-.9781428-.2355772-2.8178111-1.5778621-2.5948894.7972371,6.8812968,3.2031315,13.5241143,4.3809123,20.3189805,1.4172959,8.1766801,5.2802254,21.8591033-3.9082118,26.3024136-3.1583153-3.0754024.1066706-7.5167233.4903173-11.6155314,1.9677446-21.0230053-9.125169-43.4758934-12.1537234-63.921837l6.5513833,7.0295907c4.2111624,1.8714778,10.5576502-12.4919,12.5532908-15.4188492,4.476943,6.8583312,8.2660418,17.8555875,18.1898787,16.7916571Z" />
  <path
     id="_x34_0"
     class="st0"
     d="M275.6514816,467.0428633c1.8877303,15.1938182,8.5232314,31.4033057,10.0109413,46.422365,2.1721149,21.9284163-9.9634508,42.2887187-12.3333387,63.6357919-1.231821.0330694-2.8803865-11.9319356-3.1321169-13.66418-4.9481762-34.0501132-6.2280462-61.6913169,3.5730404-95.031572.3990374-1.3574015-.5362085-1.6253011,1.8814739-1.362405Z" />
  <path
     id="_x33_9"
     class="st0"
     d="M228.0858566,576.1519463l-10.7454633-40.0626536c-.4961679-5.0065086-2.0565975-10.4208096-2.3378395-15.3824516-1.0220218-18.0304006,7.1468194-36.9871534,9.3738943-54.5952257,1.7611241.2916163,1.5216231,1.965648,1.9658483,3.1542444,10.1490358,27.1553861,7.6183556,62.184742,4.5460285,90.5653508-.5885226,5.436475-1.7696924,10.9606182-2.8024683,16.3207357Z" />
  <path
     id="_x33_8"
     class="st0"
     d="M382.9066961,400.8231153c-1.8249651.3608111-2.2389496-.8390502-2.9851467-2.134689-1.8635293-3.2356878-3.4279163-9.5331119-5.2400897-13.4119574-10.5507944-22.583325-24.1173471-44.0255018-23.470465-70.2468641,4.1474802,4.2057495,5.2967136,11.0520572,8.5209994,16.183355.5959119.9483655,1.9245261,2.8745247,1.7147636.1553369-4.8475491-10.7727092-11.4863315-21.7689007-10.2357306-34.0582398,26.541647,26.5506603,25.3352203,68.6623037,31.695669,103.5130585Z" />
  <path
     id="_x33_7"
     class="st0"
     d="M198.9488192,182.7762975c6.0847173-1.2206968,10.0899018,8.0694046,11.8794503,12.8956634,4.7989211,12.9422785,1.97956,25.4775941-6.4976981,36.1672968-7.3190529-6.3500688-27.7407419-21.2695149-28.2255098-31.2174009-.2260873-4.6395195,18.4029508-16.9546586,22.8437576-17.8455592Z" />
  <path
     id="_x33_6"
     class="st0"
     d="M148.821153,297.3143444c2.6352961,3.094682-10.4184923,32.0942148-13.0380936,36.8515139l1.7152688-.1548313,10.3857686-19.9096378c2.1130014,28.8546107-15.7604946,52.5218044-26.2715135,77.6998928-1.4975762,3.5872931-2.0878909,7.208245-3.321104,10.7124754-.5297939,1.5054332.4829503,2.4906515-2.1015081,2.0410102,5.5028537-31.5083884,5.9728446-70.3944575,23.855003-97.8403622.5917209-.9081854,7.139179-11.3224231,8.7761787-9.400061Z" />
  <path
     id="_x33_5"
     class="st0"
     d="M297.7359289,182.7424543c7.7492337-1.3688189,25.9048053,11.3610041,25.5537107,18.9579678-.4255592,9.2082248-19.5264764,22.8683358-26.5169898,28.3958432-13.0852661-12.8178756-11.330156-34.5273146.9632791-47.353811Z" />
  <path
     id="_x33_4"
     class="st0"
     d="M229.960508,363.5117702c-16.4952793,5.8613901-30.1487529,18.5325881-38.7427085,33.5449155l-6.0082805,13.0915599c-8.2354354-22.4271756-4.2087802-57.4711501,26.6006139-55.9831642,6.1737953.2981727,16.0014461,2.9155541,18.1503752,9.3466889Z" />
  <path
     id="_x33_3"
     class="st0"
     d="M315.7522013,411.0820629l-6.3604994-14.6069878c-9.0877215-15.2354763-22.3901247-27.1559433-39.3242949-32.9632756,1.8251678-6.3525706,11.4970945-8.9059609,17.2619357-9.2935556,32.5332115-2.1873459,36.06232,33.1817141,28.4228587,56.8638191Z" />
  <path
     id="_x33_2"
     class="st0"
     d="M308.7286617,667.1504748c.7240461.7514848,1.8339519,2.7673054,2.8273655,2.2644453l4.6775675-5.5862596c-.0692253,13.8209486-7.0006004,27.2926179-9.3779033,40.9827651-1.2284943,7.0745162-1.8493329,14.7693883-1.3419176,21.9543722.1950053,2.761268,3.8558949,9.829343-.4910259,9.8367034-.8568026.0661248-1.3270352-.3825847-1.866708-.9521895-6.239141-6.5851831,3.1655431-35.3707518,4.103717-44.4314967.1069419-1.032829.8396229-3.3611755-.8135079-3.1422252-3.8657381,16.5156386-9.0489288,32.6770134-10.2681706,49.7513756-5.7682688,2.2302855-4.8431108-6.2773552-4.6990375-10.1613939.5094745-13.7348026,2.3203929-28.1119778,2.8241778-41.935861l.9325539-25.6325545c-1.3866756-.0619626-1.6170672,3.2920024-1.7482552,4.2989261-1.0929516,8.3888656-.4764765,16.7052515-1.049533,25.0640304-.7343308,10.711176-2.1390725,21.4623622-2.7975373,32.1799747-1.6283921.2173392-.8758111-2.1160162-.9230326-3.2502545-.1532311-3.6805362.3026132-7.5710368-.0122782-11.1887154-1.106896-12.7167473-4.7779638-25.3607483-7.4530685-37.7786066,9.3803599.9862903,13.704734-11.5684142,16.8023631-18.6537477.8882284-.6714572,4.9260765,9.2974711,5.7361098,10.5711098.9847501,1.548351,3.572302,4.3920234,4.938121,5.809602Z" />
  <path
     id="_x33_1"
     class="st0"
     d="M110.3707823,403.4018094c-.8885983,1.0601264-3.9534962,1.1942777-5.3739895,1.151141,4.2058988-20.9469665-1.1115214-40.5654916,3.0720424-61.7344417.8278192-4.1887886,9.5665852-33.2847647,12.3126568-33.366179,7.0020164,16.5175481,1.4769416,38.7367276-1.6923412,56.1103734-.8634021,4.7330716-7.0739872,36.3545193-8.3183685,37.8391063Z" />
  <path
     id="_x33_0"
     class="st0"
     d="M394.0971838,404.5542595l-4.0677-.1198683-1.345778-1.4515353c-2.0641474-15.1758931-6.5795471-29.8281556-9.2101688-44.8810098-2.7893842-15.9613198-5.879968-31.8355114-1.2203905-47.7311941,2.0745602-1.896262,6.7548254,10.5925866,7.2369418,11.8712489,2.4954831,6.6184849,4.5165202,14.5064211,5.5427613,21.5028145,2.9555438,20.1494053-.9066348,40.7864449,3.0643343,60.8095441Z" />
  <path
     id="_x32_9"
     class="st0"
     d="M121.768905,274.9203347c-1.628017.0057377-1.0318007-4.0929446-.9590454-5.1606314.7421527-10.8911234,2.2521923-21.2199518,7.1510599-31.0857163,5.2612567-10.5955751,13.1155329-17.5718455,23.2027519-23.4274926l-3.741054,12.1131355,9.3309435-14.8983249c5.4318146,6.9727527-1.669734,22.5750588-5.9041901,29.516406-5.130612,8.4103738-8.6723607,7.356388-15.3856023,12.5925796-6.1849151,4.8241078-11.1330953,12.9720502-13.6948636,20.3500441Z" />
  <path
     id="_x32_8"
     class="st0"
     d="M352.1251885,222.7009234l-3.7168271-6.0659646c-.1474307-.6951833.9503337-.6254064,1.37881-.4510233,1.5351327.6247749,11.5010393,8.6048882,13.1162547,10.2036578,12.0634341,11.9406064,15.5569722,31.2062742,15.3343708,47.6023741l-8.840168-13.9945162c-13.2296249-9.2322458-26.7691026-21.2405509-28.3676771-38.8059997-1.1785792-12.9504582,7.3994543-3.2919559,11.0952367,1.511472Z" />
  <path
     id="_x32_7"
     class="st0"
     d="M315.7532147,546.310965c-1.362037.1669411-1.6728261-2.4403622-1.7696536-3.3423758-2.6535067-24.7191926.0976122-48.3595865-.9797934-72.6992768-.3152649-7.1221556-2.7018053-14.5782761-1.8992283-21.8726451,1.5357639-1.7288216,7.3194588,8.0588087,7.9223286,9.3213023,8.8708947,18.5768916,7.7810014,38.0914413,3.5596651,57.6509642-2.2254702,10.3116956-7.0620167,20.2662877-6.8333184,30.9420311Z" />
  <path
     id="_x32_6"
     class="st0"
     d="M141.374819,297.3097238c.8831185-8.5392963,1.9306749-17.1051396,2.7783302-25.656598.3015686-3.0423344-.3183856-6.2815308.0255072-9.3005534,1.063415-9.3356814,11.1332416-26.7113129,15.3846973-36.8405443.6569915-1.5653037,1.7726391-4.8453349,3.2422322-5.6036456,8.0792905,27.1757915-2.6791635,57.3755604-21.430767,77.4013412Z" />
  <path
     id="_x32_5"
     class="st0"
     d="M185.1881477,543.5129099l-9.0443446-35.2398754c-2.5996772-16.0724263-1.8176995-35.3249258,5.1444245-50.2678606,1.8105317-3.8859775,4.3930983-8.039951,8.5632531-9.612986l-4.6633329,95.120722Z" />
  <path
     id="_x32_4"
     class="st0"
     d="M359.5864314,298.2415925c-10.878513-8.8949536-18.5669991-25.4777597-22.1086529-38.9675032-2.8236442-10.7549293-5.9866181-26.2050395,1.1381861-35.6357779,2.0720624,10.7262322,11.3545519,19.1565622,14.713827,29.1098254,4.5579369,13.5048023,2.0360322,31.4619069,6.2566398,45.4934556Z" />
  <path
     id="_x32_3"
     class="st0"
     d="M374.3332745,312.0331275c-6.2235751,3.5653089-10.1308121-9.239703-11.2521751-13.0799347-3.7185238-12.7344961-5.2969429-27.5494222-5.3454943-40.8088814,3.7482605.4615465,7.2859759,2.8665684,9.807576,5.5707994,9.2926963,9.9657344,12.4109193,29.9384785,9.1893328,42.8007047-.2784698,1.1117944-1.7336962,5.1360411-2.3992395,5.5173119Z" />
  <path
     id="_x32_2"
     class="st0"
     d="M134.2260203,261.2617897c1.9259375-1.706577,4.8717228-2.7964666,7.1299711-4.0538136.3273267,14.6312608-.3594235,32.1673913-5.8000045,45.9500513-1.3317017,3.3736088-3.6846574,7.8737851-7.6667936,8.191472-3.3725507-.3062647-5.4644267-7.2956358-5.8641322-10.084571-1.6277249-11.3574107,3.2673622-32.0870613,12.2009592-40.0031387Z" />
  <path
     id="_x32_1"
     class="st0"
     d="M236.4814706,512.7369005l-10.1497485-57.2444504.9563472-6.0431466,13.8592165-3.8668245-6.5156766-.9104844c1.9737615-.2610066,4.5501163-.7045756,6.3084899-1.5810745,1.5207652-.7580579.5842063-2.3377952,2.0696207-2.1549114,2.8583617,24.0020074-2.9731019,48.1679004-6.5282492,71.8008918Z" />
  <path
     id="_x32_0"
     class="st0"
     d="M264.4598508,511.8044857l-3.4273287-14.7442905c-3.1003251-17.9466924-4.7700821-36.0157805-4.0146839-54.2636129,2.8463027,1.1625505,5.5295771,3.2755585,8.5542272,4.0263642,2.5234894.6264031,8.5790708.1317635,9.0494795,2.1085084l-10.1616942,62.8730307Z" />
  <path
     id="_x31_9"
     class="st0"
     d="M327.8770795,482.8937149l-14.9146692-51.7733556c-.7029919-10.680396,5.5950238-19.9262002,6.5403739-30.2863938l4.1973545,13.0412796c5.5570414,22.8313046,5.3474226,45.7481949,4.1769408,69.0184697Z" />
  <path
     id="_x31_8"
     class="st0"
     d="M181.4620691,401.7582717c2.8759321,12.9818712,8.8071122,24.4023416,3.9993394,38.0375388l-12.3780157,39.367505c-1.8825012-21.6122019-1.5476419-43.1277197,3.2456977-64.3541197.7647998-3.3867716,1.8141114-8.738038,3.1850149-11.7338523.4979532-1.0881696-.4522546-1.6910617,1.9479637-1.3170718Z" />
  <path
     id="_x31_7"
     class="st0"
     d="M298.9748417,232.018285l5.1550672-5.5644553c5.289408-3.9645798,10.9973861-7.6130162,15.854085-12.121377,2.8854105-2.6784595,7.5811889-6.420164,7.9120186-10.2849489l8.8894616,6.5316549c-.8691428,20.7703031-20.2736091,25.314578-37.8106324,21.4391263Z" />
  <path
     id="_x31_6"
     class="st0"
     d="M200.1195214,232.9599828h-17.2532121c-8.1429743,0-16.1120845-8.8299079-18.2327605-16.2715156-2.6239266-9.2075512.453001-8.4611505,7.4922368-12.6407599.4983746,3.6956426,3.9331008,6.4015904,6.5304286,8.874625,4.3131187,4.1067175,18.2708402,13.1606485,20.5760412,16.7279184.7425328,1.1490602,1.1396085,1.8599254.887266,3.3097321Z" />
  <path
     id="_x31_5"
     class="st0"
     d="M188.0049629,354.1985113l4.6420017-44.7579095c2.0243679,8.4047882,11.6799399,15.5441648,10.22419,24.6534864-.8586851,5.3732024-11.0521592,15.8235802-14.8661918,20.1044232Z" />
  <path
     id="_x31_4"
     class="st0"
     d="M311.0905443,352.3335197c-6.5200225-6.5832294-15.2017109-16.1183126-12.6048417-26.140995,1.1553667-4.4591668,6.3378387-9.4906382,7.9629521-13.9537791,1.3100693.1091994,1.6358343,4.1935949,1.7383886,5.2376592.2674072,2.7223652-.1548443,5.4726208.2262445,8.1664258,1.2762729,9.0215981,4.9599906,17.4118818,2.6772565,26.6906892Z" />
  <path
     id="_x31_3"
     class="st0"
     d="M222.4925998,579.8847405l-11.3501333-20.8106229c-4.2761723-9.1741188-2.6481463-20.7061022,1.5718837-29.5407358,3.5853466,16.7085755,10.4200904,32.8820277,9.7782496,50.3513587Z" />
  <path
     id="_x31_2"
     class="st0"
     d="M279.3806415,578.9512253l-.9581017-7.9579811,4.964193-23.9460499,5.3198966-16.5801966c.4628904,5.9482382,3.9538898,13.098788,3.6647721,18.9637859-.5733573,11.6310381-10.5114674,18.899305-12.99076,29.5204417Z" />
  <path
     id="_x31_1"
     class="st0"
     d="M294.2989069,333.6823749l14.0026236,20.5071762c-2.0634513.2783351-2.7012309-1.7928693-4.4108113-2.5742711-7.466652-3.4127993-17.488337-2.2928862-25.4271314-1.1513521-.3699689-1.5154256.3081533-2.1608039.9052238-3.2822545,1.2247432-2.3003798,12.8926411-15.0167878,14.9300954-13.4992985Z" />
  <path
     id="_x31_0"
     class="st0"
     d="M201.5184305,349.5357404c-2.3444264.3319612-5.493255,3.0071127-7.9225702,2.3360389l14.4391886-17.027974c1.8138613-.1338126,13.5824195,12.0861726,14.4562627,14.2411462,1.120966,2.7643999-2.1647681.4507889-2.3207598.4507889-5.5223115,0-13.5469132-.7228766-18.6521212,0Z" />
  <path
     id="_x30_9"
     class="st0"
     d="M118.0501881,303.3717404c-1.1828222,8.7499343-8.3382189,20.0523111-9.3365019,29.3714359-1.6382179-.2748823-1.0343026-4.8473533-.9671872-6.1024774.4205348-7.8644131,2.5792516-16.0610714,4.2341201-23.7428918l6.069569-13.0488546c-.4058553,4.2722572.5598483,9.3813065,0,13.5227879Z" />
  <path
     id="_x30_8"
     class="st0"
     d="M392.2274973,331.8109307c-1.406102-.2143683-2.0692169-3.1830737-2.5569589-4.42425-4.597477-11.6993822-9.534748-23.8637844-7.6833326-36.6004253,1.4557358.7487777,2.6099426,4.0599461,3.2403605,5.6058977,4.5706146,11.2083577,5.4973592,23.5108375,6.999931,35.4187777Z" />
  <polygon
     id="_x30_5"
     class="st0"
     points="215.050096 232.0220836 218.7598651 226.4387098 221.5654129 235.7528108 212.2419024 234.8180313 215.964265 225.5037445 215.050096 232.0220836" />
  <path
     id="_x30_4"
     class="st0"
     d="M286.8494153,234.8141008l-9.3192086,1.8711038,3.7360414-11.1850991c2.949336,1.9911366,3.6772331,6.3890498,5.5831672,9.3139953Z" />
  <path
     id="_x30_3"
     class="st0"
     d="M205.7034161,567.7586017c-4.9644525-3.9352714-.3794204-9.8436382-.9115608-14.910226l2.7407545,8.9677866-1.8291937,5.9424394Z" />
  <path
     id="_x30_2"
     class="st0"
     d="M296.1679379,566.8319762c-4.6105725-3.2323663-1.7911474-8.7086618-1.8459224-13.0510084l2.6071478,7.2563808-.7612254,5.7946275Z" />
  <path
     id="_x30_1"
     class="st0"
     d="M284.9960975,223.6340434c2.0718004,1.6323244,3.7490674,5.6399179,4.5038845,8.0897452.4582302,1.4872275,1.8882133,1.5236441-.3168201,3.0829483-2.5759877-2.9959187-4.2371687-7.2179419-4.1870644-11.1726935Z" />
</svg>
