<?xml version="1.0" encoding="UTF-8"?>
<svg id="Male_Front" xmlns="http://www.w3.org/2000/svg" version="1.1" viewBox="0 0 500 800">
  <!-- Generator: Adobe Illustrator 29.6.1, SVG Export Plug-In . SVG Version: 2.1.1 Build 9)  -->
  <defs>
    <style>
      .st0 {
        fill: #fff;
      }
    </style>
  </defs>
  <path id="black_back" d="M398.898926,409.0036582c-.2063695-8.7641888-.885682-18.2161333-.9364637-27.0858624-.1454927-25.4135534,4.9963084-60.4313965-3.6877922-84.4007916-2.2042933-6.084383-6.6531381-11.7866183-8.1951278-18.0414565-2.776597-11.2624042-.3746834-23.6853234-3.347983-36.0069239-1.5911806-6.5941579-7.3550882-15.3023033-8.0972353-20.0142341-.9495568-6.0294408,1.0639074-11.943858.9290605-17.7729864-.2696937-11.6615607-6.469345-29.3245404-15.5306374-36.9640674-10.9536147-9.2351739-17.6699546-9.2608707-30.6811463-11.4848648-6.6434712-1.1355524-33.1438144-13.5354669-39.7329554-17.4254682-6.0841382-3.5917964-10.1655193-7.0996501-10.6555322-14.6439766-.2106523-3.2431769,2.0533554-22.0265358,3.3873847-23.862264,1.0773064-1.4825812,3.8442978-2.5383513,5.4890133-4.8182665,3.8472345-5.3333031,6.4560684-17.6200295,2.0819277-23.0399674-.754139-.9343835-2.8773651-1.154152-3.3006887-2.830805-.3175998-1.257918.835818-3.6379282.8594345-5.418959.1769406-13.3575474-.6030175-22.6294309-11.7810506-31.404755-24.4950163-19.2301156-62.823888-5.5042478-63.283126,27.5860929-.0389122,2.8024162,1.4388355,8.8644062,1.0695362,10.2525212-.2304144.8658587-5.4154716.0892045-5.7705765,7.567576-.3046291,6.4158713,2.327699,14.2214483,6.1261096,19.2845682.8663482,1.1548862,2.6793164,1.2866739,3.280682,2.5562166,1.467469,3.0982961,3.2948152,22.1359306,2.8479361,25.9652386-1.583961,13.5711977-20.3567353,17.2643128-30.9094804,21.5632598-12.8002946,5.2147309-15.3034658,6.3603173-29.1085652,9.3093274-20.4033566,4.3586614-34.3833776,24.9001687-35.5949802,44.9885563-.4191632,6.9497522,1.7932673,14.0711834.8894141,20.5702632-.7077012,5.0889391-4.8215092,10.1311345-6.5109493,15.0375042-4.130572,11.9951292-2.6887997,22.7046858-3.7274998,34.6903928-1.2256747,14.1430119-10.9382578,25.7001948-12.984516,41.3626199-4.4000822,33.6784908.4206928,67.5127529-.1186334,101.0799522-.2925149,18.2083631-5.9171704,23.2068129,4.5162683,41.3969435,4.6337392,8.0786358,12.9586968,17.3445234,22.1378273,20.0212701,3.9259156,1.144791,11.304192.7977623,9.5109859-4.7466826-2.282852-7.0583517-15.5029216-15.3759674-16.505218-23.8511899-.4086398-3.4550529-.2720186-10.2908216,2.8182625-12.6739522,2.0265573,5.9639141,2.9665084,23.2583288,11.5097662,22.322844,2.8270116-.3095849,3.3157397-2.5214036,3.5025919-4.9830929.3235957-4.2632775-2.7676032-27.1923817-4.0230127-31.599561-1.9144704-6.7208674-9.297152-13.5511909-9.0384101-20.7356403.7259949-20.1575242,19.7056893-45.9644217,24.9663685-66.0017217,3.9294642-14.9669605,1.8366459-28.5981173,5.4272799-43.2978925l12.6327761-30.9239807c1.2554707,15.8922277,13.1854402,31.0278691,14.9032692,46.4763992,1.0633568,9.5634195-1.2263477,16.4567-1.806544,25.1659467-.4846288,7.2745716,1.7307997,14.1452145.8676942,21.4848234-1.0706375,9.1049157-7.0073864,20.4891349-8.9928901,30.3628734-7.5111043,37.3510485-15.2172592,86.9284358-7.4786774,124.0529245,3.3046656,15.8535602,13.3307493,32.7329721,13.8078527,48.0573012.5920658,19.0158535-3.4985539,31.5288949-7.0831307,49.2098624-7.5103701,37.0451957,5.9301412,61.0098185,13.1372282,95.5747254,4.0376965,19.3646565,6.531935,33.0984168-7.0631239,49.1784756-3.9319727,4.6506868-25.193479,21.1661835-7.8800364,23.8600002,7.3623689,1.1455252,34.1907742,1.8482095,40.4779169-.6051589,1.0148388-.395975.9570211-1.6456945,1.8856533-2.0775837,1.483866-.690203,3.8359157-.2840717,5.7902773-1.5211875,6.988848-4.4238211,1.5108476-16.938698.9957498-23.3945216-.4522631-5.6687071.9977688-11.1353887.9192101-15.9118674-.1167979-7.1020362-3.0062772-14.6823994-2.7985005-22.4817357.6881228-25.831493,15.9119285-49.7452118,15.8271292-76.0080434-.0453976-14.0704492-8.5769083-31.919547-8.2501311-42.9155001.1289121-4.3392053,4.9547653-14.304045,6.1919423-20.0404815,3.8759904-17.9722587,3.5897774-36.7222118,7.1123761-54.7310579,2.5816075-13.1982274,8.4621294-25.654736,9.5618288-39.1727658,1.7296373,14.379361,8.6499606,28.2462551,11.2769657,42.1427004,2.9132794,15.4110251,2.1131309,31.2797586,5.4199379,47.0532305,1.4423841,6.8801262,7.1057071,19.5902374,7.2244017,24.703099.2250915,9.697471-6.4334307,24.1757646-7.4029331,34.7488835-2.1877127,23.8588378,5.5464639,38.4574167,10.6680135,60.3044422,5.2433644,22.3664673,3.6068474,38.879945,2.2955168,61.3619254-.3361382,5.7632957-4.6168527,19.0610063.0818626,23.4018024,1.6498549,1.5241243,4.0300487,1.5928326,5.7706988,2.4675628.8760763.4402101.9324256,1.7222341,1.8797186,2.0914722,5.3789455,2.0963057,12.8232993.597144,18.031912.6040576,6.1388968.0082597,23.1605587,1.1531119,27.6357121-1.410569,9.7667299-5.5950431-11.1894743-19.7469265-14.4901631-23.8380968-10.8320445-13.4260721-8.1608654-33.8337727-4.6845821-49.6832948,6.4831112-29.5592988,17.2485276-53.0936231,14.5190413-84.7749855-.7850363-9.1124412-4.8514887-18.4138149-6.2850013-27.4476974-1.3362931-8.4207699-1.7632266-24.0248267-1.2327107-32.5724896.8870892-14.2911355,9.5646432-29.0900268,12.6961003-43.5261043,7.9479493-36.6405328.679496-78.7953474-5.2968382-115.5981981-2.1794531-13.421361-6.5806365-22.9661198-9.695452-35.2815408-2.8275011-11.1793792.2631471-18.7525228-.4416785-29.5421676-.4938062-7.5594387-2.6251085-13.119424-1.7970607-21.4014925,1.6301541-16.3044773,12.0227226-29.621644,14.8893195-45.55413l13.5831283,30.9091745c2.4899557,10.1426369.8877622,20.9776182,2.4307308,31.3020291,3.6822246,24.6381229,25.7888486,50.7483035,27.0030821,75.2036122.4085786,8.2288395-6.8340556,14.2409656-8.8670983,21.8321581-1.157823,4.3232366-4.3106329,26.4362237-3.9725369,30.2786247.562331,6.390664,5.2767091,6.8812887,9.1604697,2.0835796,4.5004219-5.5593735,4.7137051-13.3743727,5.6381157-20.1396588,5.841059,4.3670434,4.1549227,14.5523248.7751247,19.993126-2.5348639,4.0806468-22.1637076,18.160457-12.9549647,22.6778265,5.3085241,2.6041228,19.5120458-6.9503029,23.3865679-11.3092702,17.3530278-19.5226304,12.7268141-33.4606801,12.16846-57.1688246Z"/>
  <path id="_x37_1" class="st0" d="M170.3158911,209.9257753c8.6264052,29.2804888,38.2567372,38.7209921,64.9780114,26.1004525,13.8307962-6.5323633,14.998592-22.1320149,11.3368025-35.4277677l-14.4758463-4.7189056,15.9214119.921168c-2.1963395-9.7880215-1.2830641-18.5408303-10.9384414-24.1902037-7.2337015-4.2326249-24.3722837-6.7095486-32.6351408-5.7942542-14.7408901,1.6328461-24.7440914,15.0054444-32.3217014,26.2334639.9277145.7190201,8.299628-2.2044156,10.0611414-2.5858291.9465588-.2050847,3.2868002-.9505357,3.0500229.7093532-3.9425573.0877361-16.7635929,8.2854947-16.8382971,11.6955783-.0966076,4.4111562,6.6598682,7.4902409,6.0740431,10.7999847l-4.2120063-3.7430403ZM188.5879455,225.8455352c4.5263022,2.2137154,14.9727117,8.4423674,19.6681231,8.4423674h15.4608891l-7.0194394,1.9398613c-8.9734339-.4274229-17.813-2.7261824-25.490399-7.3792554-.6807196-.4124943-3.5673233-1.8994807-2.6191737-3.0029733Z"/>
  <path id="_x37_0" class="st0" d="M327.6669941,197.3349705l-15.8653684-7.0773795,16.8616077,3.7289682c-5.7113515-9.7717469-16.8326682-22.7380916-28.2846167-25.5845593-8.4870308-2.10946-28.8516587.1166144-36.725271,4.1556569-9.7086063,4.9802785-10.8587814,14.2138616-10.8879656,24.2529772.5425689.5382861,11.7950003-1.5938115,13.7069011-1.7642667,1.0494071-.0934873,3.3645636-.8665929,3.1515863.8118955-7.4132118,2.3825799-16.7528859-.1952954-17.7932991,9.8534871-.8489723,8.2000836-.5872935,21.82243,6.6175297,27.1092343,12.1912812,8.9460241,35.676904,10.3871233,49.3120377,4.4578999,9.6556831-4.1987296,21.0269315-15.8033903,21.376224-26.4117505l-4.6941878,4.675833c-1.0782242-2.6494592,4.0157931-5.0688711,5.580298-7.5324571,2.8260939-4.4500685,1.4346751-7.5574196-2.3554759-10.6755389ZM281.8169842,235.2154336l9.59138-1.1700595c6.3636824-1.5683594,13.2637542-3.9062759,18.8164588-7.4201255,3.9136178-2.476679,6.7616152-6.5518194,10.94199-8.2573507-9.0701027,11.4049601-24.7530853,18.3105383-39.3498288,16.8475357Z"/>
  <path id="_x36_9" class="st0" d="M265.3982787,411.3688622c6.0655387-14.6005368,16.5939942-60.3405401,15.8840904-75.4152434-.0811284-1.723519-.26278-3.5276769-.8673271-5.1673754-.5800128-.8777282-2.8779769-1.4330843-3.9875878-1.6248311-4.6126311-.7971505-15.6618133.6804137-21.3625191.7526706-2.2753265.0288171-4.1897357-.8126297-6.3135737-.7876671-1.1188495.0131543-2.487386,1.1970411-3.920348,1.2175985-4.3449565.0621617-23.1786688-1.4593929-25.3553686.4429022-.5111821.4467567-1.0297674,1.7471967-1.1058788,2.4749047,2.4762507,26.1854354,6.5716426,53.8258586,17.090676,78.0923572,10.449958,24.1071175,19.509109,25.118163,29.9378366.0146839ZM249.9654113,348.5974078l-3.7568064-16.8543881,8.4295802.0044052-4.6727738,16.849983Z"/>
  <path id="_x36_6" class="st0" d="M301.9540122,425.4360686c-6.3947632,22.9634889-22.1174534,43.9413518-13.1242574,68.4168509l8.9013606,34.653989c9.8987623-35.0645255,24.4907335-69.6526819,18.4918841-107.0242266-1.4321054-8.9219792-4.7830864-15.9648517-8.1846655-24.1473758l-6.0843218,28.1007624Z"/>
  <path id="_x36_5" class="st0" d="M148.7552622,308.3126449c-6.663478,7.6123618-12.9827417,15.8202156-16.1747086,25.5227035-5.5626162,16.908229-10.07607,39.6878025-11.9291742,57.4103743-.3379125,3.2318581,1.1284552,7.3269441-1.4169321,9.8273009l.4851795-20.1292577c5.7577281-31.7019198,15.7641109-62.1705171-1.9004596-92.3052399-2.1863055-.476002-1.4981216.2967365-2.0847421,1.2030982-4.4674444,6.9028862-7.757365,18.1964936-8.2505594,26.3940075-.7239147,12.0328178,3.8650999,21.3515673,4.7155406,32.8494641,1.1841928,16.0099434-.8780953,33.3031956.0365873,49.4526357,2.458263,2.5496089,4.4544736,4.2151878,7.9694245,5.3073004.8897812.0180489,2.4414377-12.7003831,2.9458898-14.7844522,5.6246555-23.2381384,23.0288933-42.9186205,25.6039543-67.1611355.4564847-4.2973563-.3306929-9.2102725,0-13.5867993Z"/>
  <path id="_x36_4" class="st0" d="M189.3136345,486.5486742c3.1253389,11.433716,7.8881738,27.4452501,12.3982625,38.2163565.3746222.8946758.0932426,2.1463532,1.3808342,1.8685834,1.4461774-14.1894497,6.8426824-28.0613607,9.0841748-41.9882751,3.5348964-21.9629669-8.8797019-37.6476014-14.2235285-58.2726232l-5.1463897-28.0991105c-15.3754779,26.9766512-11.3615815,59.4903441-3.4933533,88.2750689Z"/>
  <path id="_x36_3" class="st0" d="M362.8368764,299.8780477c7.5482422-17.2126745,8.5926323-32.3796415,3.554842-50.376924-4.6578452-16.6400037-11.7985489-32.8806061-31.1645514-34.8869119-1.1764837,17.3183983-1.4970815,33.5694019,3.4954335,50.3748438,3.9038898,13.1410827,11.7776856,28.2163979,24.1142759,34.8889921Z"/>
  <path id="_x36_2" class="st0" d="M150.9029614,219.1008677c-14.1293682,8.3020141-21.9888472,38.7923313-20.917965,54.1110315.6032622,8.6299538,5.7970686,17.8787103,6.5979512,26.6688406,2.4517776,2.0940419,11.9024373-10.3014674,13.3210824-12.4393162,13.7994094-20.7954159,17.9195804-49.4372788,13.8343448-73.7679582-3.8523127,2.6663457-8.8872886,3.1074735-12.8354135,5.4274022Z"/>
  <path id="_x36_1" class="st0" d="M187.2210609,540.1698764c3.742612,2.4463935,4.8086608,1.3963135,7.4440479-1.8234305,9.4123592-11.4996098-1.8813094-31.5418045-5.3514744-44.3015961-3.8203753-14.0471997-6.9883586-28.3306873-8.7389203-42.797295l.0510264-28.6113939c-6.2040565,13.4604568-11.2923838,27.6406067-12.1840616,42.6364455-.971399,16.3373324,4.3757314,65.4822799,18.779382,74.89727Z"/>
  <path id="_x36_0" class="st0" d="M319.281282,418.8881037c-1.6205484-.0064854-1.029951,4.1040799-.9697471,5.1911755,1.4101408,25.4786519,1.1183601,42.0503756-6.2646274,66.7338961-3.2173578,10.7564226-13.8173972,32.5108174-9.6899455,42.9223526.360489.9093597,4.3154052,6.054954,5.0335687,6.6844637,2.2250342,1.9504459,5.8789924-.8468309,7.6807641-2.5425117,14.4182121-13.5692398,17.8145907-62.9591632,15.3495364-81.8675185-1.6811193-12.8948832-6.4739949-25.1601955-11.1395492-37.1218578Z"/>
  <path id="_x35_9" class="st0" d="M311.8363775,337.8682727c.7488161-8.1174868-.7573205-16.8542658-1.924015-24.8648051l-7.4764748,13.1121432c2.9681603-7.8937414,7.3249862-15.6529418,7.4774537-24.3620662-4.261442,4.7021415-10.1406791,9.7291025-14.0253575,14.5441874-11.0177954,13.65667-11.9095957,37.0076295-16.2158234,54.0607393-3.1581329,12.5066784-7.9801315,24.7120317-10.9691551,37.2778738,11.3133083-13.5593894,21.1924309-28.2366494,29.969407-43.5771307l-6.548332,1.8847968c8.0073578-8.6899741,18.527676-15.2337174,19.7122971-28.0757387Z"/>
  <path id="_x35_8" class="st0" d="M208.2606573,369.2143535c-2.4108464-1.5279788-4.7619171-6.7728116-7.9645299-6.0906848l31.844904,46.3821166c-3.6603211-14.1682193-9.2357857-27.7586895-12.8430614-41.9584791-2.626638-10.3395843-3.8163984-21.0011736-6.3471018-31.1337153-3.8727478-15.5056749-12.7469432-24.796158-23.8946297-35.5967545,1.755334,8.0001994,3.891898,16.0431656,8.41043,22.9751137.2104076,2.7326066-1.1238053.7958044-1.7231519-.1560161-1.4143624-2.2460811-2.2882361-5.4248326-3.6573844-7.5555841-.5918822-.921168.0942827-1.6784884-2.0970399-1.2037101-.412066,15.0218414-5.4337041,24.6086939,4.702631,37.9220674,2.4851834,3.2642238,12.9910013,12.7128032,14.0251739,15.0272255.1830589.4095575.238674,1.5368503-.45624,1.3884209Z"/>
  <path id="_x35_7" class="st0" d="M386.768277,357.5158996c1.4989782-22.3145843,10.8437916-34.4469465,2.5773247-57.8808699-.6120726-1.7351437-5.264656-13.4287641-7.261295-11.9340688-3.1291322,9.2321147-7.4857746,18.1599063-9.1413807,27.8789748-5.0901628,29.8814873,10.399727,57.1436785,6.3663744,86.8112708l2.12084,1.3520783c1.0691691-.7282587,3.3923405-1.1696924,4.1487433-1.964518,2.4678687-2.5933546.7333368-37.4737199,1.1893933-44.2628674Z"/>
  <path id="_x35_6" class="st0" d="M202.6386326,377.656782c-12.3289425,20.5795018-5.5693463,41.3798123,1.3832203,62.3249424,8.0841422,24.3538065,17.1781062,51.0819332,26.1421792,75.0560393.4462672,1.1934314.2087557,2.8745507,1.9767545,3.1673103-.7030514-32.3335709-11.0352937-63.3789382-18.2725438-94.6289008-3.5520276-15.337667-4.7915908-31.362906-11.2296102-45.9193912Z"/>
  <path id="_x35_5" class="st0" d="M304.1965447,395.0912441c-.7171846-5.8252127-4.6225427-12.35623-5.5296387-18.3691514-1.4425065.7402505-2.6498263,4.1034068-3.2525991,5.6311409-5.9979317,15.2022083-7.5148364,33.6470428-11.2468638,49.6588217-6.0046618,25.7624177-17.4602812,58.672208-16.410813,84.7969501.0456424,1.1359195-.7061105,3.4855219.9267968,3.2646521,6.2533698-29.4194349,19.4863491-56.7981793,28.5536374-85.2991995,3.9890562-12.5385547,8.6024827-26.3382088,6.9594803-39.6832138Z"/>
  <path id="_x35_4" class="st0" d="M215.2928839,477.9135199c-2.5612336,21.509113-15.8493997,47.0488865-5.8030645,68.1057976,9.4634468,19.8352133,19.3498503,4.7491299,20.6658919-9.6632086,1.2454979-13.6396612-7.0700988-43.3883207-12.9679966-56.129941-.430115-.9291217-.5428136-2.2003164-1.8948308-2.312648Z"/>
  <path id="_x35_3" class="st0" d="M276.2354014,553.2952963c8.5012864,5.748979,13.4281523-2.8522801,15.9200659-10.2229087,4.9461997-14.6300269-4.0421629-45.7733479-7.8009883-61.6194438-.2209922-.9316302-.2825421-2.8232183-1.5934444-2.5955572-5.2021272,19.0288854-15.0636293,38.1437326-13.0161475,58.4430173.5122223,5.0779874,2.1177196,13.0378062,6.4905143,15.9948924Z"/>
  <path id="_x35_2" class="st0" d="M139.3944189,223.9804393c5.6706038-7.2800169,13.7346169-12.257481,19.6402849-19.2364786,9.3344124-11.0305214,15.6615074-26.0165098,26.2528589-36.5327287l.0264921-.9137037-1.8854086-.4834663,2.8028444-.9381768c-.5597613-1.5761908-4.7614277-2.5551154-6.1614733-2.718351-11.5255513-1.3436963-22.5429797,7.4944014-29.4407265,15.8460959-7.7994587,13.6377645-11.9117982,29.1773347-11.2348719,44.9768093Z"/>
  <path id="_x35_1" class="st0" d="M136.6177607,226.3669349c4.8183277-17.8227892.4447376-30.9367067,14.0115301-47.3633049,4.7004284-8.2188055,10.435213-12.8647813,19.6705092-15.9410515.1989052-1.7472579-1.9694126-.7700465-2.9977116-.6579596-34.2492038,3.7321497-42.3714628,38.6598094-32.5908444,67.1959485,1.7854971-.32537,1.5583866-1.9458572,1.9065167-3.2336324Z"/>
  <path id="_x35_0" class="st0" d="M317.4144118,167.2956928l-3.743285.4730653c-.795315.5800128,11.4699974,13.5933458,12.5737959,15.0589182,3.3945431,4.5070908,5.8153623,9.7191297,9.1505581,14.274922,7.0151566,9.582325,15.2592306,18.1124285,24.1801697,25.9408878.2804007-13.1802397-1.387136-26.037679-7.6202543-37.8156093-7.4230622-14.0266423-23.6010747-27.1992953-40.156279-20.2681426l5.6152946,2.3359586Z"/>
  <path id="_x34_9" class="st0" d="M285.5508471,395.45571c-10.0113998,11.0959258-23.8959757,27.2275006-25.2750356,42.6494162-1.4049402,15.7115549,2.3471551,31.0051703,4.679198,46.3674327,1.8293652-.3291022,1.5257762-1.9821386,1.9043141-3.240179,4.2973563-14.2847725,8.3885877-31.7457267,11.6859726-46.4092817,2.9219673-12.9939993,5.5204613-26.1356326,7.0055509-39.3673882Z"/>
  <path id="_x34_8" class="st0" d="M231.598646,417.0900641l-18.1799743-23.5032434,20.5949811,90.8800482c4.5211629-21.6867878,11.8328113-47.8502586-2.4150068-67.3768048Z"/>
  <path id="_x34_7" class="st0" d="M283.9769812,270.0726106c-3.231491-1.2099507-25.5490733-3.5085878-28.4495655-2.5631915-1.0956001.3570627-1.9817715,1.0993322-2.7628309,1.9168566v19.6774841c0,7.3739936,21.1521727,7.6911652,26.2866317,6.6096983,11.0654568-2.3303298,10.0275521-23.7305987,4.9257646-25.6408475Z"/>
  <path id="_x34_6" class="st0" d="M239.4532304,267.3586648c-7.4543878.5631263-15.7507731,3.4660046-23.4766901,3.6973979-7.9804374,2.7292416-3.1740404,20.2483194,2.1517373,23.6361324,5.036016,3.2036528,18.0445156,1.9571148,23.6251807.2667569,4.6588241-1.4111197,5.7611543-6.2227784,5.9811064-10.6901004.1013187-2.057577-.373215-13.2676087-.7808758-14.6542553-1.0172249-3.459764-4.9039224-2.4522059-7.5004585-2.2559315Z"/>
  <path id="_x34_5" class="st0" d="M248.5725241,320.5181205c1.0777959-4.1249432-.0296736-19.0687766-4.2348275-21.1065303-4.2643787-2.0663873-22.8055762,3.4690638-29.053929,1.404879v15.4608279c0,.3242687,2.0394057,5.385492,2.4146397,6.0185503,4.5162071,7.6182353,28.3607281,7.841063,30.8741168-1.7777269Z"/>
  <path id="_x34_4" class="st0" d="M253.9439441,324.9413909c4.046568,4.3108777,19.837783,3.3414977,24.5937042.2425285,6.3574417-4.1425026,5.9558379-17.4551419,4.2993753-23.9811421-2.305612-2.743436-5.2486262-.1671514-8.0538567-.3028548-4.7315705-.2288236-16.8244697-3.7144067-20.1301143-.5375519-3.1462634,3.0236531-3.9763302,21.0985154-.7091084,24.5790203Z"/>
  <path id="_x34_3" class="st0" d="M246.1943494,238.0385295c-5.3019775,5.1957642-31.6819742,7.2669238-34.6681223,9.8257101-2.2559315,1.9330088.0319374,14.2219377,2.1223084,16.1646134,4.427798,4.1151539,27.8830129.8320858,31.5932592-3.062443,4.0242363-4.2241817,3.1485883-17.7020144.9525547-22.9278806Z"/>
  <path id="_x34_2" class="st0" d="M288.6791839,247.3724524c-11.8341573-.456913-23.2773566-4.8292794-34.406933-8.4111642-.5417124.0714615-1.4769524,2.1553471-1.5076661,2.3543135-.6179461,4.0072275,0,10.5940435,0,14.9923513,0,6.9820567,11.1591888,8.0972965,16.5134165,8.7862146,5.4468584.70091,15.0168244,2.2319479,18.6107011-2.7097854,1.839338-2.5291739,3.8961196-14.3222775.7904815-15.0119298Z"/>
  <path id="_x34_1" class="st0" d="M361.2802029,319.2671774c-2.5696769-4.1697902-6.7325534-9.2179815-10.1207335-12.8269091-1.9664758,26.9351081,12.1731711,48.2439698,22.5148356,71.6464452l4.6415706,19.2381917c.143596-6.3388422-.2030657-12.809472-1.0472657-19.0843782-2.0924512-15.5530303-8.0562429-46.1020218-15.988407-58.9733496Z"/>
  <path id="_x34_0" class="st0" d="M215.7599533,614.7261748c-4.1614693,17.2315188-1.4218267,29.1498024,4.1917548,45.4542797l2.8177119,6.0685366c7.4319337-22.2154071,7.8817496-45.2734234.0004283-67.4588509-3.5807223,3.5434008-5.8217253,11.0161435-7.0098949,15.9360346Z"/>
  <path id="_x33_9" class="st0" d="M277.1384592,601.6024068c-6.5371356,16.2205345-7.2886437,33.6001156-3.2997098,50.6057476l4.2149431,14.0408979c6.967067-20.3105423,14.7679941-46.601518-.9152332-64.6466455Z"/>
  <path id="_x33_8" class="st0" d="M197.6955533,367.5924591c-.50745-1.5417449-6.1171158-10.0736839-7.2555438-10.5468716-1.8712754-.4214882-1.3153686.7150432-1.8201878,1.8644229-8.4476291,19.2335418-12.4159444,44.3625953-14.4478246,65.2495406-.1013799,1.0425546-.8645127,3.3641353.8081022,3.1478541,4.009063-13.0348694,11.9226888-24.2660704,17.043137-36.840417,2.3869239-5.8617388,7.5976167-17.0243539,5.6723169-22.8745292Z"/>
  <path id="_x33_7" class="st0" d="M185.2886639,603.0161574c-.2009243-2.5776306-.5739557-8.5276562-2.7905467-9.8481642-7.0198677,21.5859586-7.1956458,42.5904972-1.2520445,64.4898952l12.4765765,47.0100355c-1.6170609-18.6304631-5.082882-37.0978741-6.5401947-55.7574602-1.1898216-15.2344516-.7073341-30.6742326-1.8937907-45.8943063Z"/>
  <path id="_x33_6" class="st0" d="M301.6572757,371.308273c.9554303,7.1560606,6.7396506,16.8111931,9.0375535,23.8439092l15.1478168,29.3463827c-2.606876-23.3865679-5.7200395-45.835632-15.4465723-67.4561588-2.8878885,3.4486287-9.3566217,9.6390414-8.738798,14.265867Z"/>
  <path id="_x33_5" class="st0" d="M316.4702391,594.1110646l-1.852064,7.0314924c-1.2675237,18.5043042-.3230451,37.792054-1.8931788,56.2014637-1.6846679,19.7524942-9.2315641,42.8053711-8.4245632,61.861544.0483344,1.1405694-.707946,3.4846042.9278369,3.2656922-.3140512-36.9680442,21.2917918-70.5290641,16.7638988-108.1091809-.8368581-6.9457142-3.1019671-13.7533388-5.5219296-20.2510115Z"/>
  <path id="_x33_4" class="st0" d="M360.4097554,206.7580979c.7680886,5.1694556.2951457,10.8232342,1.4664901,16.3370265.453548,2.1350344,1.3245461,6.2308545,3.3211238,7.4398263.6939351-6.7812549,3.1786291-13.4391652,3.635848-20.2598218,1.6222615-24.2014613-12.2873382-47.0522516-38.2913666-47.1910141l9.8325626,5.6140097c11.2695014,9.4358534,17.8845838,23.5849836,20.0353422,38.0599734Z"/>
  <path id="_x33_3" class="st0" d="M268.2378328,163.0868068c5.2518688-11.035049,3.4297232-26.6265021,6.0694544-38.4295174-16.9839121,10.6495974-14.9974907,33.4360234-20.5965718,50.5977938,3.6849778-4.5554252,12.1770256-7.2305812,14.5271175-12.1682765Z"/>
  <path id="_x33_2" class="st0" d="M245.2590482,174.3184973c-5.3780277-17.5680241-3.8983833-40.0360549-20.5962659-51.5352364,2.814408,12.4105603,1.2322824,27.1762906,6.5298548,38.9060089,2.9058762,6.4341037,9.426676,7.4789833,14.0664111,12.6292275Z"/>
  <path id="_x33_1" class="st0" d="M289.3084488,322.3679208l18.1919049-20.6944031c2.1416421-2.903123,4.7635691-8.1229933,5.2335752-11.6328048.6714199-5.013929-.4899517-11.2286313,0-16.3978422l-8.4634755,14.4934669c-3.039683,3.9536314-9.649259,7.0704047-12.0254147,11.4001878-.4613182.8406514-2.93659,8.7596001-2.93659,9.244596v13.5867993Z"/>
  <path id="_x33_0" class="st0" d="M210.3386081,162.3408664c7.8920894-3.0038299,11.6630902-14.8860157,11.4947764-22.6919597l-39.3431598,19.6661041c3.8521292,1.1356748,7.7108049,2.2674339,11.7207856,2.812083,3.759682.5106315,12.9944888,1.4063474,16.1275979.2137726Z"/>
  <path id="_x32_9" class="st0" d="M189.2900179,297.2939318l21.2990725,26.0063534c-.9849204-6.898114.268103-17.7033604-3.0207775-23.6701501-2.1711322-3.9387028-11.0751849-8.8792125-13.8135427-13.3601171l-6.5719486-11.6851772c-1.682037,7.5609682-.254398,15.3852672,2.1071962,22.7090909Z"/>
  <path id="_x32_8" class="st0" d="M289.5580134,162.3509003c4.8319714,1.5940562,19.9717732-.747776,25.2451784-2.3708328.9786186-.3011417,2.8352713-.2428956,2.610241-1.5803513-13.7472817-4.4793139-27.338425-10.7007463-39.3397336-18.7508096-.4299314,7.2340074,4.0723872,20.256885,11.4843141,22.7019937Z"/>
  <path id="_x32_7" class="st0" d="M249.0261333,168.6916392l7.7496559-18.0038902,2.5414104-14.7838404c-6.9586237,2.2117576-14.3277839.4594827-20.5993862-2.8131843,1.1209298,5.2926778,1.7820097,10.6997673,3.2778064,15.9215954,1.9733895,6.8891813,5.9519222,12.8655155,7.0305135,19.6793195Z"/>
  <path id="_x32_6" class="st0" d="M189.0520169,261.4662734c-.0021414,14.5206321,4.6669614,28.7945752,19.6674501,33.7235825-1.574233-5.9674015.3294081-15.3917525-2.4086438-20.5386929-1.3001953-2.4441298-15.5968372-14.9207675-17.2588063-13.1848896Z"/>
  <path id="_x32_5" class="st0" d="M291.1917772,295.1940163c9.9527256-2.5494865,21.5543271-19.5406794,19.4671377-29.3030041-.196825-.9205561-1.307109-3.3115793-2.1226143-3.3731292-14.8599518,5.7712495-17.8859298,17.8431019-17.3445234,32.6761332Z"/>
  <path id="_x32_4" class="st0" d="M376.4565308,282.5393367c.2568453,1.3701272.0103399,2.905448,1.8595895,3.2845365,1.1486456-18.2004093,3.7208921-39.8774691-7.9554748-55.2651836-1.3135943,1.0618884-1.8350552,2.8410837-2.1106224,4.4275532-1.3529349,7.7899142,6.3318673,37.5532576,8.2065078,47.5530938Z"/>
  <path id="_x32_3" class="st0" d="M263.9899122,486.8266888c-.979414-15.8553345-5.9079318-31.4505809-6.5364625-48.7500738-.041176-1.1326768.6956482-3.4841147-.930223-3.2604305-5.2530313,20.2714465-2.1271418,44.6709565,4.4241882,64.4314044.3807405,1.1483396.6969331,3.9530196,2.1149052,3.9607286-.1927869-5.6593462,1.2839819-10.6131937.9275922-16.3816288Z"/>
  <path id="_x32_2" class="st0" d="M122.5089499,285.8192233l10.2732622-47.4492055-3.2355903-7.8115729c-9.6743439,11.8108467-8.9459017,28.9991704-8.8924279,43.5432967l1.854756,11.7174817Z"/>
  <path id="_x32_1" class="st0" d="M242.3443616,448.284228c-2.0403846,15.6735604-6.9134097,31.086421-6.4360616,46.9530743l1.8522475,7.0317372c5.8260081-21.0195896,11.5387668-43.8497,6.5603238-65.5787652-3.1159779,2.3632461-1.5090121,8.0026467-1.9765098,11.5939537Z"/>
  <path id="_x32_0" class="st0" d="M211.4970429,692.0613951l1.9033964,15.417694c.1031542-5.0872872,1.0979862-10.21263,2.1774952-15.1621335,1.2329554-5.6532279,5.3954037-16.8827769,5.2401829-21.7619815-.2482797-7.8036191-7.5074333-19.252019-7.8768549-27.7353177-1.6034172,16.3534847-1.4942059,32.7805723-1.4442196,49.2417386Z"/>
  <path id="_x31_9" class="st0" d="M286.9658213,641.8826421c-1.8525535,10.7935605-8.1549307,21.0463876-6.9272982,32.2389823l6.4495218,32.4204504c3.3239994-21.4810913,1.3892774-43.1044326.4777763-64.6594327Z"/>
  <path id="_x31_8" class="st0" d="M206.3828965,269.8764586c6.9655374-7.9194993-3.7865412-27.5919664-13.9198783-24.2475932-2.6337352.8691626-1.7224789,9.3920465-.8111613,11.8221043,2.2789363,6.0767963,10.0154379,8.7164663,14.7310397,12.4254889Z"/>
  <path id="_x31_7" class="st0" d="M309.0493794,245.9326992c-12.1685212-2.287869-19.451536,11.5858164-15.9817381,22.0874739,10.4057229-2.5779977,20.4622756-10.2155668,15.9817381-22.0874739Z"/>
  <path id="_x31_6" class="st0" d="M389.5791975,397.3249051l3.7290906-29.5209372.9369531-33.2500277-3.4598252,9.175643c-3.3742304,19.3254383-2.210228,39.2252606-1.69305,58.7559672l3.2785406,2.3359586c1.6534035-5.7353352,1.2004062-11.9682088-.0007342-17.7933603l-2.790975,10.2967563Z"/>
  <path id="_x31_5" class="st0" d="M106.5990404,333.6171095c-2.134912,14.6855197-.7132689,29.6806242,1.0827517,44.3481562l2.6460941,10.9264495c1.1549474-13.6444335.6039964-27.0752778-.0055065-40.740697l-3.7233394-14.5339087Z"/>
  <polygon id="_x31_4" class="st0" points="283.6816519 164.0063841 279.4856143 156.499379 274.3253973 139.6533118 269.632066 165.8806574 283.6816519 164.0063841"/>
  <path id="_x31_3" class="st0" d="M220.6812515,155.8220856c-1.2838595,3.2804984-3.3963786,5.8961847-4.4604696,9.1263909h13.1182615l-4.216595-24.3720389c-1.5335464,5.0201696-2.5174268,10.330101-4.441197,15.245648Z"/>
  <path id="_x31_2" class="st0" d="M374.5629849,296.5847009l-.9283264-15.4493867c-2.4260809-.2625965-1.4885159.0108905-1.8969722,1.3709838-3.627466,12.0791943-2.3131374,28.2059968-2.7729872,40.793926l5.5982858-26.7155231Z"/>
  <path id="_x31_0" class="st0" d="M130.9423234,318.6151524c.3303258-12.9369769.1313594-25.8683251-3.2653251-38.4084705-2.7116821,4.1196815-2.407053,9.8056421-2.3282496,14.507539l5.5935747,23.9009315Z"/>
  <path id="_x30_9" class="st0" d="M146.5023286,298.0951815c-5.5037584,5.7620721-10.0515969,14.4048131-10.8560282,22.3984659,6.6382707-6.7671216,11.8711729-15.047477,14.045609-24.3531335-1.8387262-.4252203-2.2235047.9433161-3.1895808,1.9546675Z"/>
  <path id="_x30_8" class="st0" d="M323.9688009,250.2174518c-8.0645025,3.2375481-10.2617598,8.5095461-7.4754347,16.864055,5.6024462-3.5044274,8.0869566-10.4478166,7.4754347-16.864055Z"/>
  <path id="_x30_7" class="st0" d="M175.9333271,237.1042684c.4962535,6.2295085,3.4822792,13.6654191,10.2977353,14.9824397,1.144118-7.2450203-2.9666307-13.8845759-10.2977353-14.9824397Z"/>
  <path id="_x30_6" class="st0" d="M324.910098,236.1664587c-6.5493109,2.9348157-12.8319261,8.1157737-9.3537461,15.9226967,5.3907538-3.2135645,9.7521684-9.2767782,9.3537461-15.9226967Z"/>
  <path id="_x30_5" class="st0" d="M359.4001172,306.1549117c-.8018615-1.3768573-7.5304992-11.5848375-9.185004-10.0143978,2.6779092,9.327927,8.5725644,17.2298057,14.982868,24.3529499-1.1244172-5.0144185-3.2186426-9.91002-5.797864-14.3385521Z"/>
  <path id="_x30_4" class="st0" d="M175.9384052,249.2803763c.1800609,6.593179,2.4162304,13.8665881,7.0181546,18.7214419,4.699266-8.1015793-.5180346-14.1047115-7.0181546-18.7214419Z"/>
  <path id="_x30_3" class="st0" d="M106.5893123,387.0223976v15.4608279c0,.9994819,2.6976712,1.7929614,3.7433462,1.4010857.9276533-5.4732282-1.0040706-10.2077966-1.9062108-15.4428402-.2697549-1.5653615.6159271-1.6069658-1.8371354-1.4190735Z"/>
  <path id="_x30_2" class="st0" d="M182.4785388,279.2648342c.5782385-4.3675941-.6867767-8.1524834-4.6661049-10.3069739-.3856963,3.8614901,1.1722009,8.2338565,4.6661049,10.3069739Z"/>
  <path id="_x30_1" class="st0" d="M318.3439618,281.1316433l3.7511164-10.2993872c-2.9181128,1.5813302-4.2482877,3.8349368-4.6964515,7.014606-.1275661.9052604-.5949414,3.5629181.9453352,3.2847812Z"/>
  <path id="_x37_5" class="st0" d="M207.8466593,664.1699829c-.4899902,20.0700073,1.2800293,41.2300415,7.5200195,60.3200073-5.3200073-2.0899658-11.1099854-2.4799805-16.8300171-2.789978-.0899658-16.2600098-4.3200073-32.2000122-6.4099731-48.2800293-4.2800293-33.0799561-5.3800049-66.5299683-6.710022-99.8399658-.3200073-8.0900269.3200073-16.25.0300293-24.3400269l1.8699951.0700073c1.1599731,9.0300293.8699951,17.6799927,2.1499634,26.7600098,1.2999878,9.2299805,3.8900146,18.1799927,6.4100342,27.1400146-.0400391.039978-.0599976.0700073-.0900269.0999756l.1199951.0300293c1.2800293,4.539978,2.5300293,9.0799561,3.5800171,13.6599731,1.710022.210022.8099976-1.9899902.6799927-3.0100098-.4899902-3.7000122-1.1599731-7.4400024-1.9099731-11.2099609,3.8099976-5.6400146,15.6299438-19.8700562,17.9099731-24.7000122.8200073-1.7300415,7.2800293-22.2800293,11.3499756-18.0900269,1.4300537,9.6600342-4.8399658,17.1000366-7.9299927,25.25-9.2699585,24.460022-11.0999756,52.9400024-11.7399902,78.9299927Z"/>
  <path id="_x37_4" class="st0" d="M192.0066935,566.0499878c-.4700317-8.3800049-.6300049-14.9699707,3.8799438-22.2699585l7.3200073-9.0300293c1.5300293,5.4699707,3.2400513,10.9299927,6.0700073,15.9000244,3.3900146,5.9699707,12.2900391,11.5299683,2.0599976,16.0499878-5.5100098,2.4400024-11.6199951,1.5700073-17.4599609,1.7099609l8.7099609,1.5,13.7200317-2.4400024c-2.4299927,7.5100098-12.2600098,24.6500244-18.4700317,33.1800537-2.1599731-10.6600342-4.7799683-21.5100098-5.6599731-32.1000366-.0700073-.8300171-.1199951-1.6699829-.1699829-2.5Z"/>
  <path id="_x37_3" class="st0" d="M291.2214629,664.1699829c.4899902,20.0700073-1.2800293,41.2300415-7.5200195,60.3200073,5.3200073-2.0899658,11.1099854-2.4799805,16.8300171-2.789978.0899658-16.2600098,4.3200073-32.2000122,6.4099731-48.2800293,4.2800293-33.0799561,5.3800049-66.5299683,6.710022-99.8399658.3200073-8.0900269-.3200073-16.25-.0300293-24.3400269l-1.8699951.0700073c-1.1599731,9.0300293-.8699951,17.6799927-2.1499634,26.7600098-1.2999878,9.2299805-3.8900146,18.1799927-6.4100342,27.1400146.0400391.039978.0599976.0700073.0900269.0999756l-.1199951.0300293c-1.2800293,4.539978-2.5300293,9.0799561-3.5800171,13.6599731-1.710022.210022-.8099976-1.9899902-.6799927-3.0100098.4899902-3.7000122,1.1599731-7.4400024,1.9099731-11.2099609-3.8099976-5.6400146-15.6299438-19.8700562-17.9099731-24.7000122-.8200073-1.7300415-7.2800293-22.2800293-11.3499756-18.0900269-1.4300537,9.6600342,4.8399658,17.1000366,7.9299927,25.25,9.2699585,24.460022,11.0999756,52.9400024,11.7399902,78.9299927Z"/>
  <path id="_x37_2" class="st0" d="M307.0614287,566.0499878c.4700317-8.3800049.6300049-14.9699707-3.8799438-22.2699585l-7.3200073-9.0300293c-1.5300293,5.4699707-3.2400513,10.9299927-6.0700073,15.9000244-3.3900146,5.9699707-12.2900391,11.5299683-2.0599976,16.0499878,5.5100098,2.4400024,11.6199951,1.5700073,17.4599609,1.7099609l-8.7099609,1.5-13.7200317-2.4400024c2.4299927,7.5100098,12.2600098,24.6500244,18.4700317,33.1800537,2.1599731-10.6600342,4.7799683-21.5100098,5.6599731-32.1000366.0700073-.8300171.1199951-1.6699829.1699829-2.5Z"/>
</svg>